AnekTamil-Thin.ufo
<glyph name="seven" format="2">
  <advance width="869"/>
  <unicode hex="0037"/>
  <outline>
    <contour>
      <point x="255" y="0" type="line"/>
      <point x="298" y="0" type="line"/>
      <point x="802" y="1245" type="line"/>
      <point x="802" y="1278" type="line"/>
      <point x="72" y="1278" type="line"/>
      <point x="72" y="1244" type="line"/>
      <point x="762" y="1244" type="line"/>
    </contour>
  </outline>
</glyph>
<glyph name="A" format="2">
  <advance width="1097"/>
  <unicode hex="0041"/>
  <anchor x="549" y="0" name="bottom"/>
  <anchor x="1071" y="0" name="ogonek"/>
  <anchor x="549" y="1278" name="top"/>
  <outline>
    <contour>
      <point x="76" y="0" type="line"/>
      <point x="117" y="0" type="line"/>
      <point x="534" y="1246" type="line"/>
      <point x="561" y="1246" type="line"/>
      <point x="980" y="0" type="line"/>
      <point x="1021" y="0" type="line"/>
      <point x="589" y="1278" type="line"/>
      <point x="506" y="1278" type="line"/>
    </contour>
    <contour>
      <point x="254" y="452" type="line"/>
      <point x="842" y="452" type="line"/>
      <point x="842" y="487" type="line"/>
      <point x="254" y="487" type="line"/>
    </contour>
  </outline>
</glyph>
<glyph name="grave" format="2">
  <advance width="472"/>
  <unicode hex="0060"/>
  <anchor x="352" y="971" name="_top"/>
  <anchor x="347" y="1295" name="top"/>
  <outline>
    <contour>
      <point x="157" y="1360" type="line"/>
      <point x="109" y="1360" type="line"/>
      <point x="109" y="1358" type="line"/>
      <point x="330" y="1111" type="line"/>
      <point x="369" y="1111" type="line"/>
      <point x="369" y="1112" type="line"/>
    </contour>
  </outline>
</glyph>
<glyph name="brokenbar" format="2">
  <advance width="458"/>
  <unicode hex="00A6"/>
  <outline>
    <contour>
      <point x="247" y="595" type="line"/>
      <point x="247" y="1421" type="line"/>
      <point x="211" y="1421" type="line"/>
      <point x="211" y="595" type="line"/>
    </contour>
    <contour>
      <point x="247" y="-451" type="line"/>
      <point x="247" y="377" type="line"/>
      <point x="211" y="377" type="line"/>
      <point x="211" y="-451" type="line"/>
    </contour>
  </outline>
</glyph>
<glyph name="acutecomb" format="2">
  <unicode hex="0301"/>
  <anchor x="121" y="971" name="_top"/>
  <anchor x="126" y="1295" name="top"/>
  <outline>
    <contour>
      <point x="316" y="1360" type="line"/>
      <point x="104" y="1112" type="line"/>
      <point x="104" y="1111" type="line"/>
      <point x="143" y="1111" type="line"/>
      <point x="364" y="1358" type="line"/>
      <point x="364" y="1360" type="line"/>
    </contour>
  </outline>
</glyph>
<glyph name="Aaytam.tm" format="2">
  <advance width="1461"/>
  <unicode hex="0B83"/>
  <note>
Aaytam.tm
</note>
  <outline>
    <contour>
      <point x="375" y="576" type="curve" smooth="yes"/>
      <point x="204" y="576"/>
      <point x="120" y="472"/>
      <point x="120" y="296" type="curve" smooth="yes"/>
      <point x="120" y="257" type="line"/>
      <point x="120" y="79"/>
      <point x="204" y="-23"/>
      <point x="375" y="-23" type="curve" smooth="yes"/>
      <point x="545" y="-23"/>
      <point x="631" y="79"/>
      <point x="631" y="257" type="curve" smooth="yes"/>
      <point x="631" y="296" type="line"/>
      <point x="631" y="472"/>
      <point x="545" y="576"/>
    </contour>
    <contour>
      <point x="375" y="543" type="curve" smooth="yes"/>
      <point x="523" y="543"/>
      <point x="595" y="455"/>
      <point x="595" y="295" type="curve" smooth="yes"/>
      <point x="595" y="258" type="line"/>
      <point x="595" y="98"/>
      <point x="523" y="10"/>
      <point x="375" y="10" type="curve" smooth="yes"/>
      <point x="227" y="10"/>
      <point x="155" y="98"/>
      <point x="155" y="258" type="curve" smooth="yes"/>
      <point x="155" y="295" type="line"/>
      <point x="155" y="455"/>
      <point x="227" y="543"/>
    </contour>
    <contour>
      <point x="1086" y="576" type="curve" smooth="yes"/>
      <point x="913" y="576"/>
      <point x="830" y="472"/>
      <point x="830" y="296" type="curve" smooth="yes"/>
      <point x="830" y="257" type="line"/>
      <point x="830" y="79"/>
      <point x="913" y="-23"/>
      <point x="1086" y="-23" type="curve" smooth="yes"/>
      <point x="1255" y="-23"/>
      <point x="1341" y="79"/>
      <point x="1341" y="257" type="curve" smooth="yes"/>
      <point x="1341" y="296" type="line"/>
      <point x="1341" y="472"/>
      <point x="1255" y="576"/>
    </contour>
    <contour>
      <point x="1086" y="543" type="curve" smooth="yes"/>
      <point x="1233" y="543"/>
      <point x="1306" y="455"/>
      <point x="1306" y="295" type="curve" smooth="yes"/>
      <point x="1306" y="258" type="line"/>
      <point x="1306" y="98"/>
      <point x="1233" y="10"/>
      <point x="1086" y="10" type="curve" smooth="yes"/>
      <point x="936" y="10"/>
      <point x="865" y="98"/>
      <point x="865" y="258" type="curve" smooth="yes"/>
      <point x="865" y="295" type="line"/>
      <point x="865" y="455"/>
      <point x="936" y="543"/>
    </contour>
    <contour>
      <point x="731" y="1235" type="curve" smooth="yes"/>
      <point x="558" y="1235"/>
      <point x="475" y="1134"/>
      <point x="475" y="960" type="curve" smooth="yes"/>
      <point x="475" y="931" type="line"/>
      <point x="475" y="758"/>
      <point x="558" y="656"/>
      <point x="731" y="656" type="curve" smooth="yes"/>
      <point x="901" y="656"/>
      <point x="988" y="758"/>
      <point x="988" y="931" type="curve" smooth="yes"/>
      <point x="988" y="960" type="line"/>
      <point x="988" y="1134"/>
      <point x="901" y="1235"/>
    </contour>
    <contour>
      <point x="731" y="1203" type="curve" smooth="yes"/>
      <point x="878" y="1203"/>
      <point x="953" y="1116"/>
      <point x="953" y="959" type="curve" smooth="yes"/>
      <point x="953" y="932" type="line"/>
      <point x="953" y="776"/>
      <point x="878" y="688"/>
      <point x="731" y="688" type="curve" smooth="yes"/>
      <point x="582" y="688"/>
      <point x="510" y="776"/>
      <point x="510" y="932" type="curve" smooth="yes"/>
      <point x="510" y="959" type="line"/>
      <point x="510" y="1116"/>
      <point x="582" y="1203"/>
    </contour>
  </outline>
</glyph>
<glyph name="VowelA.tm" format="2">
  <advance width="2022"/>
  <unicode hex="0B85"/>
  <note>
vowelA.tm
</note>
  <outline>
    <contour>
      <point x="971" y="1163" type="curve" smooth="yes"/>
      <point x="674" y="1163"/>
      <point x="500" y="1002"/>
      <point x="500" y="708" type="curve" smooth="yes"/>
      <point x="500" y="573" type="line" smooth="yes"/>
      <point x="500" y="368"/>
      <point x="590" y="253"/>
      <point x="774" y="253" type="curve" smooth="yes"/>
      <point x="943" y="253"/>
      <point x="1024" y="360"/>
      <point x="1024" y="540" type="curve" smooth="yes"/>
      <point x="1024" y="625" type="line" smooth="yes"/>
      <point x="1024" y="798"/>
      <point x="943" y="894"/>
      <point x="787" y="894" type="curve" smooth="yes"/>
      <point x="659" y="894"/>
      <point x="569" y="816"/>
      <point x="534" y="720" type="curve"/>
      <point x="526" y="720" type="line"/>
      <point x="526" y="635" type="line"/>
      <point x="552" y="764"/>
      <point x="650" y="860"/>
      <point x="784" y="860" type="curve" smooth="yes"/>
      <point x="923" y="860"/>
      <point x="988" y="778"/>
      <point x="988" y="625" type="curve" smooth="yes"/>
      <point x="988" y="540" type="line" smooth="yes"/>
      <point x="988" y="378"/>
      <point x="920" y="286"/>
      <point x="774" y="286" type="curve" smooth="yes"/>
      <point x="614" y="286"/>
      <point x="535" y="386"/>
      <point x="535" y="567" type="curve"/>
      <point x="535" y="720" type="line"/>
      <point x="534" y="720" type="line"/>
      <point x="539" y="978"/>
      <point x="693" y="1129"/>
      <point x="971" y="1129" type="curve" smooth="yes"/>
      <point x="1282" y="1129"/>
      <point x="1403" y="960"/>
      <point x="1403" y="662" type="curve" smooth="yes"/>
      <point x="1403" y="565" type="line" smooth="yes"/>
      <point x="1403" y="186"/>
      <point x="1231" y="-17"/>
      <point x="797" y="-17" type="curve" smooth="yes"/>
      <point x="795" y="-17" type="line" smooth="yes"/>
      <point x="375" y="-17"/>
      <point x="137" y="171"/>
      <point x="137" y="539" type="curve" smooth="yes"/>
      <point x="137" y="547" type="line" smooth="yes"/>
      <point x="137" y="568"/>
      <point x="137" y="588"/>
      <point x="138" y="609" type="curve"/>
      <point x="514" y="609" type="line"/>
      <point x="514" y="641" type="line"/>
      <point x="102" y="641" type="line"/>
      <point x="101" y="620"/>
      <point x="100" y="585"/>
      <point x="100" y="549" type="curve" smooth="yes"/>
      <point x="100" y="541" type="line" smooth="yes"/>
      <point x="100" y="149"/>
      <point x="356" y="-51"/>
      <point x="795" y="-51" type="curve" smooth="yes"/>
      <point x="797" y="-51" type="line" smooth="yes"/>
      <point x="1256" y="-51"/>
      <point x="1439" y="168"/>
      <point x="1439" y="565" type="curve" smooth="yes"/>
      <point x="1439" y="664" type="line" smooth="yes"/>
      <point x="1439" y="984"/>
      <point x="1302" y="1163"/>
    </contour>
    <contour>
      <point x="1003" y="641" type="line"/>
      <point x="1003" y="609" type="line"/>
      <point x="1425" y="608" type="line"/>
      <point x="1425" y="640" type="line"/>
    </contour>
    <contour>
      <point x="1420" y="640" type="line"/>
      <point x="1420" y="608" type="line"/>
      <point x="1797" y="608" type="line"/>
      <point x="1797" y="640" type="line"/>
    </contour>
    <contour>
      <point x="1781" y="1131" type="line"/>
      <point x="1781" y="-33" type="line"/>
      <point x="1817" y="-33" type="line"/>
      <point x="1817" y="1131" type="line"/>
    </contour>
  </outline>
</glyph>
<glyph name="VowelI.tm" format="2">
  <advance width="2090"/>
  <unicode hex="0B87"/>
  <note>
vowelI.tm
</note>
  <outline>
    <contour>
      <point x="1023" y="1135" type="curve" smooth="yes"/>
      <point x="725" y="1135"/>
      <point x="564" y="978"/>
      <point x="564" y="705" type="curve" smooth="yes"/>
      <point x="564" y="568" type="line" smooth="yes"/>
      <point x="564" y="362"/>
      <point x="652" y="248"/>
      <point x="836" y="248" type="curve" smooth="yes"/>
      <point x="1006" y="248"/>
      <point x="1085" y="350"/>
      <point x="1085" y="525" type="curve" smooth="yes"/>
      <point x="1085" y="624" type="line" smooth="yes"/>
      <point x="1085" y="791"/>
      <point x="1006" y="883"/>
      <point x="850" y="883" type="curve" smooth="yes"/>
      <point x="721" y="883"/>
      <point x="631" y="806"/>
      <point x="598" y="713" type="curve"/>
      <point x="589" y="713" type="line"/>
      <point x="589" y="633" type="line"/>
      <point x="615" y="757"/>
      <point x="714" y="849"/>
      <point x="846" y="849" type="curve" smooth="yes"/>
      <point x="985" y="849"/>
      <point x="1050" y="771"/>
      <point x="1050" y="624" type="curve" smooth="yes"/>
      <point x="1050" y="526" type="line" smooth="yes"/>
      <point x="1050" y="369"/>
      <point x="983" y="282"/>
      <point x="836" y="282" type="curve" smooth="yes"/>
      <point x="676" y="282"/>
      <point x="600" y="380"/>
      <point x="600" y="562" type="curve" smooth="yes"/>
      <point x="600" y="713" type="line"/>
      <point x="598" y="713" type="line"/>
      <point x="601" y="955"/>
      <point x="744" y="1102"/>
      <point x="1023" y="1102" type="curve" smooth="yes"/>
      <point x="1332" y="1102"/>
      <point x="1447" y="949"/>
      <point x="1447" y="661" type="curve" smooth="yes"/>
      <point x="1447" y="632" type="line" smooth="yes"/>
      <point x="1447" y="212"/>
      <point x="1272" y="-13"/>
      <point x="843" y="-13" type="curve" smooth="yes"/>
      <point x="429" y="-13"/>
      <point x="196" y="149"/>
      <point x="196" y="504" type="curve" smooth="yes"/>
      <point x="196" y="516" type="line"/>
      <point x="196" y="542"/>
      <point x="196" y="570"/>
      <point x="197" y="604" type="curve"/>
      <point x="573" y="604" type="line"/>
      <point x="575" y="636" type="line"/>
      <point x="162" y="636" type="line"/>
      <point x="160" y="601"/>
      <point x="160" y="558"/>
      <point x="160" y="524" type="curve" smooth="yes"/>
      <point x="160" y="506" type="line" smooth="yes"/>
      <point x="160" y="124"/>
      <point x="408" y="-47"/>
      <point x="843" y="-47" type="curve" smooth="yes"/>
      <point x="1009" y="-47"/>
      <point x="1138" y="-13"/>
      <point x="1234" y="46" type="curve"/>
      <point x="1241" y="51" type="line"/>
      <point x="1409" y="158"/>
      <point x="1484" y="348"/>
      <point x="1484" y="630" type="curve" smooth="yes"/>
      <point x="1484" y="665" type="line" smooth="yes"/>
      <point x="1484" y="968"/>
      <point x="1353" y="1135"/>
    </contour>
    <contour>
      <point x="1931" y="636" type="curve"/>
      <point x="1069" y="636" type="line"/>
      <point x="1069" y="604" type="line"/>
      <point x="1897" y="604" type="line"/>
      <point x="1898" y="571"/>
      <point x="1899" y="532"/>
      <point x="1899" y="499" type="curve"/>
      <point x="1899" y="411" type="line" smooth="yes"/>
      <point x="1899" y="119"/>
      <point x="1792" y="-13"/>
      <point x="1534" y="-13" type="curve" smooth="yes"/>
      <point x="1422" y="-13"/>
      <point x="1313" y="12"/>
      <point x="1240" y="66" type="curve"/>
      <point x="1213" y="48" type="line"/>
      <point x="1286" y="-15"/>
      <point x="1409" y="-47"/>
      <point x="1535" y="-47" type="curve" smooth="yes"/>
      <point x="1816" y="-47"/>
      <point x="1935" y="96"/>
      <point x="1935" y="410" type="curve" smooth="yes"/>
      <point x="1935" y="498" type="line"/>
      <point x="1935" y="541"/>
      <point x="1933" y="592"/>
    </contour>
    <contour>
      <point x="1027" y="1506" type="curve" smooth="yes"/>
      <point x="498" y="1506"/>
      <point x="221" y="1297"/>
      <point x="221" y="935" type="curve" smooth="yes"/>
      <point x="221" y="917" type="line" smooth="yes"/>
      <point x="221" y="842"/>
      <point x="237" y="765"/>
      <point x="263" y="710" type="curve"/>
      <point x="304" y="702" type="line"/>
      <point x="273" y="763"/>
      <point x="258" y="839"/>
      <point x="258" y="918" type="curve" smooth="yes"/>
      <point x="258" y="931" type="line" smooth="yes"/>
      <point x="258" y="1274"/>
      <point x="520" y="1472"/>
      <point x="1027" y="1472" type="curve" smooth="yes"/>
      <point x="1532" y="1472"/>
      <point x="1779" y="1273"/>
      <point x="1779" y="925" type="curve" smooth="yes"/>
      <point x="1779" y="861"/>
      <point x="1776" y="787"/>
      <point x="1769" y="720" type="curve"/>
      <point x="1805" y="720" type="line"/>
      <point x="1813" y="787"/>
      <point x="1816" y="863"/>
      <point x="1816" y="926" type="curve" smooth="yes"/>
      <point x="1816" y="1296"/>
      <point x="1551" y="1506"/>
    </contour>
  </outline>
</glyph>
<glyph name="VowelAi.tm" format="2">
  <advance width="1775"/>
  <unicode hex="0B90"/>
  <note>
vowelAi.tm
</note>
  <outline>
    <contour>
      <point x="608" y="1163" type="curve" smooth="yes"/>
      <point x="314" y="1163"/>
      <point x="160" y="1007"/>
      <point x="160" y="742" type="curve" smooth="yes"/>
      <point x="160" y="650" type="line" smooth="yes"/>
      <point x="160" y="453"/>
      <point x="248" y="341"/>
      <point x="438" y="341" type="curve" smooth="yes"/>
      <point x="618" y="341"/>
      <point x="700" y="441"/>
      <point x="700" y="624" type="curve" smooth="yes"/>
      <point x="700" y="667" type="line" smooth="yes"/>
      <point x="700" y="829"/>
      <point x="617" y="922"/>
      <point x="459" y="922" type="curve" smooth="yes"/>
      <point x="327" y="922"/>
      <point x="231" y="847"/>
      <point x="195" y="754" type="curve"/>
      <point x="187" y="754" type="line"/>
      <point x="187" y="670" type="line"/>
      <point x="214" y="796"/>
      <point x="319" y="888"/>
      <point x="455" y="888" type="curve" smooth="yes"/>
      <point x="596" y="888"/>
      <point x="664" y="805"/>
      <point x="664" y="666" type="curve" smooth="yes"/>
      <point x="664" y="626" type="line" smooth="yes"/>
      <point x="664" y="468"/>
      <point x="596" y="375"/>
      <point x="438" y="375" type="curve" smooth="yes"/>
      <point x="270" y="375"/>
      <point x="197" y="478"/>
      <point x="197" y="646" type="curve" smooth="yes"/>
      <point x="197" y="754" type="line"/>
      <point x="195" y="754" type="line"/>
      <point x="198" y="991"/>
      <point x="342" y="1129"/>
      <point x="608" y="1129" type="curve" smooth="yes"/>
      <point x="898" y="1129"/>
      <point x="1008" y="981"/>
      <point x="1008" y="701" type="curve" smooth="yes"/>
      <point x="1008" y="406" type="line"/>
      <point x="1043" y="406" type="line"/>
      <point x="1043" y="774" type="line" smooth="yes"/>
      <point x="1043" y="1024"/>
      <point x="1147" y="1121"/>
      <point x="1311" y="1121" type="curve" smooth="yes"/>
      <point x="1502" y="1121"/>
      <point x="1573" y="1001"/>
      <point x="1573" y="798" type="curve" smooth="yes"/>
      <point x="1573" y="656" type="line" smooth="yes"/>
      <point x="1573" y="418"/>
      <point x="1482" y="295"/>
      <point x="1166" y="272" type="curve" smooth="yes"/>
      <point x="595" y="229" type="line" smooth="yes"/>
      <point x="297" y="207"/>
      <point x="189" y="99"/>
      <point x="189" y="-108" type="curve" smooth="yes"/>
      <point x="189" y="-111" type="line" smooth="yes"/>
      <point x="189" y="-328"/>
      <point x="309" y="-454"/>
      <point x="562" y="-454" type="curve" smooth="yes"/>
      <point x="797" y="-454"/>
      <point x="923" y="-337"/>
      <point x="928" y="-121" type="curve"/>
      <point x="930" y="-121" type="line"/>
      <point x="934" y="-336"/>
      <point x="1046" y="-454"/>
      <point x="1263" y="-454" type="curve" smooth="yes"/>
      <point x="1487" y="-454"/>
      <point x="1582" y="-320"/>
      <point x="1582" y="-85" type="curve" smooth="yes"/>
      <point x="1582" y="-4"/>
      <point x="1576" y="75"/>
      <point x="1559" y="150" type="curve"/>
      <point x="1522" y="158" type="line"/>
      <point x="1539" y="78"/>
      <point x="1546" y="-5"/>
      <point x="1546" y="-85" type="curve" smooth="yes"/>
      <point x="1546" y="-298"/>
      <point x="1467" y="-420"/>
      <point x="1262" y="-420" type="curve" smooth="yes"/>
      <point x="1067" y="-420"/>
      <point x="946" y="-322"/>
      <point x="946" y="-54" type="curve" smooth="yes"/>
      <point x="946" y="84" type="line"/>
      <point x="911" y="84" type="line"/>
      <point x="911" y="-45" type="line" smooth="yes"/>
      <point x="911" y="-325"/>
      <point x="780" y="-420"/>
      <point x="564" y="-420" type="curve" smooth="yes"/>
      <point x="330" y="-420"/>
      <point x="225" y="-308"/>
      <point x="225" y="-111" type="curve" smooth="yes"/>
      <point x="225" y="-108" type="line" smooth="yes"/>
      <point x="225" y="77"/>
      <point x="318" y="176"/>
      <point x="599" y="197" type="curve" smooth="yes"/>
      <point x="1171" y="239" type="line" smooth="yes"/>
      <point x="1513" y="263"/>
      <point x="1609" y="401"/>
      <point x="1609" y="657" type="curve" smooth="yes"/>
      <point x="1609" y="799" type="line" smooth="yes"/>
      <point x="1609" y="1024"/>
      <point x="1524" y="1155"/>
      <point x="1312" y="1155" type="curve" smooth="yes"/>
      <point x="1124" y="1155"/>
      <point x="1029" y="1036"/>
      <point x="1023" y="830" type="curve"/>
      <point x="1021" y="830" type="line"/>
      <point x="996" y="1045"/>
      <point x="868" y="1163"/>
    </contour>
  </outline>
</glyph>
<glyph name="Ka.tm" format="2">
  <advance width="1531"/>
  <unicode hex="0B95"/>
  <note>
Ka.tm
</note>
  <anchor x="876" y="1245" name="top"/>
  <outline>
    <contour>
      <point x="886" y="624" type="line"/>
      <point x="1106" y="624" type="line" smooth="yes"/>
      <point x="1287" y="624"/>
      <point x="1366" y="554"/>
      <point x="1366" y="371" type="curve" smooth="yes"/>
      <point x="1366" y="294" type="line" smooth="yes"/>
      <point x="1366" y="123"/>
      <point x="1296" y="14"/>
      <point x="1096" y="14" type="curve" smooth="yes"/>
      <point x="973" y="14"/>
      <point x="889" y="42"/>
      <point x="814" y="88" type="curve"/>
      <point x="811" y="83" type="line"/>
      <point x="824" y="42" type="line"/>
      <point x="878" y="10"/>
      <point x="969" y="-21"/>
      <point x="1095" y="-21" type="curve" smooth="yes"/>
      <point x="1320" y="-21"/>
      <point x="1403" y="101"/>
      <point x="1403" y="293" type="curve" smooth="yes"/>
      <point x="1403" y="374" type="line" smooth="yes"/>
      <point x="1403" y="576"/>
      <point x="1309" y="656"/>
      <point x="1109" y="656" type="curve" smooth="yes"/>
      <point x="886" y="656" type="line"/>
    </contour>
    <component base="KaComponent_Nonexporting" xOffset="88"/>
    <component base="KaBeak_Nonexporting" xOffset="941"/>
  </outline>
</glyph>
<glyph name="Nya.tm" format="2">
  <advance width="2361"/>
  <unicode hex="0B9E"/>
  <note>
Nya.tm
</note>
  <anchor x="1255" y="1245" name="top"/>
  <outline>
    <contour>
      <point x="1609" y="1111" type="line"/>
      <point x="1609" y="0" type="line"/>
      <point x="1645" y="0" type="line"/>
      <point x="1645" y="1111" type="line"/>
    </contour>
    <contour>
      <point x="1935" y="734" type="curve" smooth="yes"/>
      <point x="1778" y="734"/>
      <point x="1680" y="645"/>
      <point x="1645" y="524" type="curve"/>
      <point x="1632" y="524" type="line"/>
      <point x="1632" y="431" type="line"/>
      <point x="1639" y="431" type="line"/>
      <point x="1676" y="602"/>
      <point x="1777" y="699"/>
      <point x="1931" y="699" type="curve" smooth="yes"/>
      <point x="2118" y="699"/>
      <point x="2184" y="576"/>
      <point x="2184" y="350" type="curve" smooth="yes"/>
      <point x="2184" y="320" type="line" smooth="yes"/>
      <point x="2184" y="-221"/>
      <point x="1892" y="-468"/>
      <point x="1264" y="-468" type="curve" smooth="yes"/>
      <point x="1262" y="-468" type="line" smooth="yes"/>
      <point x="578" y="-468"/>
      <point x="222" y="-172"/>
      <point x="222" y="507" type="curve" smooth="yes"/>
      <point x="222" y="752"/>
      <point x="244" y="951"/>
      <point x="293" y="1131" type="curve"/>
      <point x="256" y="1131" type="line"/>
      <point x="211" y="966"/>
      <point x="185" y="751"/>
      <point x="185" y="505" type="curve" smooth="yes"/>
      <point x="185" y="-191"/>
      <point x="556" y="-502"/>
      <point x="1262" y="-502" type="curve" smooth="yes"/>
      <point x="1264" y="-502" type="line" smooth="yes"/>
      <point x="1918" y="-502"/>
      <point x="2221" y="-237"/>
      <point x="2221" y="318" type="curve" smooth="yes"/>
      <point x="2221" y="353" type="line" smooth="yes"/>
      <point x="2221" y="601"/>
      <point x="2138" y="734"/>
    </contour>
    <contour>
      <point x="1822" y="1131" type="line"/>
      <point x="1321" y="1131" type="line"/>
      <point x="1321" y="1098" type="line"/>
      <point x="1822" y="1098" type="line"/>
    </contour>
    <component base="VowelE_NonExporting" xOffset="536"/>
    <component base="RaBeak_Nonexporting" xOffset="1611"/>
  </outline>
</glyph>
<glyph name="Ya.tm" format="2">
  <advance width="1898"/>
  <unicode hex="0BAF"/>
  <note>
Ya.tm
</note>
  <anchor x="757" y="1245" name="top"/>
  <outline>
    <contour>
      <point x="1657" y="1131" type="line"/>
      <point x="1657" y="34" type="line"/>
      <point x="1234" y="34" type="line"/>
      <point x="1234" y="0" type="line"/>
      <point x="1693" y="0" type="line"/>
      <point x="1693" y="1131" type="line"/>
    </contour>
    <contour>
      <point x="1390" y="0" type="line"/>
      <point x="1390" y="34" type="line"/>
      <point x="775" y="34" type="line"/>
      <point x="775" y="1131" type="line"/>
      <point x="739" y="1131" type="line"/>
      <point x="739" y="395" type="line" smooth="yes"/>
      <point x="739" y="137"/>
      <point x="656" y="15"/>
      <point x="470" y="15" type="curve" smooth="yes"/>
      <point x="317" y="15"/>
      <point x="236" y="111"/>
      <point x="236" y="320" type="curve" smooth="yes"/>
      <point x="236" y="1131" type="line"/>
      <point x="200" y="1131" type="line"/>
      <point x="200" y="318" type="line" smooth="yes"/>
      <point x="200" y="91"/>
      <point x="296" y="-19"/>
      <point x="470" y="-19" type="curve" smooth="yes"/>
      <point x="644" y="-19"/>
      <point x="727" y="85"/>
      <point x="745" y="244" type="curve"/>
      <point x="747" y="244" type="line"/>
      <point x="743" y="0" type="line"/>
    </contour>
  </outline>
</glyph>
<glyph name="Llla.tm" format="2">
  <advance width="1607"/>
  <unicode hex="0BB4"/>
  <note>
Llla.tm
</note>
  <anchor x="771" y="1245" name="top"/>
  <outline>
    <contour>
      <point x="715" y="-584" type="curve" smooth="yes"/>
      <point x="910" y="-584"/>
      <point x="983" y="-488"/>
      <point x="1048" y="-329" type="curve" smooth="yes"/>
      <point x="1056" y="-309" type="line" smooth="yes"/>
      <point x="1066" y="-283"/>
      <point x="1075" y="-268"/>
      <point x="1108" y="-268" type="curve" smooth="yes"/>
      <point x="1234" y="-268" type="line"/>
      <point x="1244" y="-236" type="line"/>
      <point x="1088" y="-236" type="line" smooth="yes"/>
      <point x="886" y="-236"/>
      <point x="834" y="-174"/>
      <point x="834" y="-22" type="curve" smooth="yes"/>
      <point x="834" y="9" type="line"/>
      <point x="798" y="9" type="line"/>
      <point x="798" y="-24" type="line" smooth="yes"/>
      <point x="798" y="-195"/>
      <point x="866" y="-257"/>
      <point x="1064" y="-260" type="curve"/>
      <point x="1064" y="-262" type="line"/>
      <point x="1042" y="-263"/>
      <point x="1031" y="-279"/>
      <point x="1020" y="-304" type="curve" smooth="yes"/>
      <point x="1014" y="-319" type="line" smooth="yes"/>
      <point x="956" y="-454"/>
      <point x="892" y="-551"/>
      <point x="715" y="-551" type="curve" smooth="yes"/>
      <point x="528" y="-551"/>
      <point x="427" y="-459"/>
      <point x="427" y="-265" type="curve" smooth="yes"/>
      <point x="427" y="-223"/>
      <point x="432" y="-180"/>
      <point x="436" y="-155" type="curve"/>
      <point x="400" y="-155" type="line"/>
      <point x="396" y="-179"/>
      <point x="391" y="-218"/>
      <point x="391" y="-265" type="curve" smooth="yes"/>
      <point x="391" y="-481"/>
      <point x="511" y="-584"/>
    </contour>
    <component base="Ma.tm"/>
  </outline>
</glyph>
<glyph name="Va.tm" format="2">
  <advance width="1843"/>
  <unicode hex="0BB5"/>
  <note>
Va.tm
</note>
  <anchor x="1058" y="1245" name="top"/>
  <outline>
    <contour>
      <point x="1602" y="1131" type="line"/>
      <point x="1602" y="33" type="line"/>
      <point x="1192" y="33" type="line"/>
      <point x="1192" y="0" type="line"/>
      <point x="1638" y="0" type="line"/>
      <point x="1638" y="1131" type="line"/>
    </contour>
    <component base="Va_NonExporting" xOffset="25"/>
  </outline>
</glyph>
<glyph name="MatraIiDflt.tm" format="2">
  <unicode hex="0BC0"/>
  <note>
MatraIiDflt.tm
</note>
  <outline>
    <contour>
      <point x="347" y="1786" type="curve" smooth="yes"/>
      <point x="106" y="1786"/>
      <point x="-20" y="1665"/>
      <point x="-20" y="1442" type="curve" smooth="yes"/>
      <point x="-20" y="1428" type="line" smooth="yes"/>
      <point x="-20" y="1295"/>
      <point x="28" y="1186"/>
      <point x="83" y="1129" type="curve"/>
      <point x="124" y="1129" type="line"/>
      <point x="59" y="1195"/>
      <point x="16" y="1297"/>
      <point x="16" y="1428" type="curve" smooth="yes"/>
      <point x="16" y="1440" type="line" smooth="yes"/>
      <point x="16" y="1618"/>
      <point x="102" y="1726"/>
      <point x="269" y="1748" type="curve"/>
      <point x="269" y="1748" type="line"/>
      <point x="295" y="1752"/>
      <point x="321" y="1753"/>
      <point x="349" y="1753" type="curve" smooth="yes"/>
      <point x="532" y="1753"/>
      <point x="612" y="1677"/>
      <point x="612" y="1531" type="curve" smooth="yes"/>
      <point x="612" y="1526" type="line" smooth="yes"/>
      <point x="612" y="1397"/>
      <point x="554" y="1334"/>
      <point x="435" y="1334" type="curve" smooth="yes"/>
      <point x="307" y="1334"/>
      <point x="250" y="1409"/>
      <point x="250" y="1539" type="curve" smooth="yes"/>
      <point x="250" y="1555" type="line" smooth="yes"/>
      <point x="250" y="1638"/>
      <point x="267" y="1709"/>
      <point x="305" y="1757" type="curve"/>
      <point x="269" y="1758" type="line"/>
      <point x="269" y="1748" type="line"/>
      <point x="236" y="1706"/>
      <point x="214" y="1638"/>
      <point x="214" y="1551" type="curve" smooth="yes"/>
      <point x="214" y="1534" type="line" smooth="yes"/>
      <point x="214" y="1391"/>
      <point x="286" y="1301"/>
      <point x="436" y="1301" type="curve" smooth="yes"/>
      <point x="578" y="1301"/>
      <point x="647" y="1379"/>
      <point x="647" y="1524" type="curve" smooth="yes"/>
      <point x="647" y="1533" type="line" smooth="yes"/>
      <point x="647" y="1694"/>
      <point x="553" y="1786"/>
    </contour>
  </outline>
</glyph>
<glyph name="MatraUDflt.tm" format="2">
  <advance width="1040"/>
  <unicode hex="0BC1"/>
  <note>
MatraUDflt.tm
</note>
  <outline>
    <contour>
      <point x="22" y="1098" type="line"/>
      <point x="580" y="1098" type="line" smooth="yes"/>
      <point x="807" y="1098"/>
      <point x="901" y="991"/>
      <point x="901" y="785" type="curve" smooth="yes"/>
      <point x="901" y="746" type="line" smooth="yes"/>
      <point x="901" y="559"/>
      <point x="822" y="465"/>
      <point x="670" y="465" type="curve" smooth="yes"/>
      <point x="506" y="465"/>
      <point x="426" y="579"/>
      <point x="426" y="766" type="curve" smooth="yes"/>
      <point x="426" y="826" type="line" smooth="yes"/>
      <point x="426" y="946"/>
      <point x="444" y="1034"/>
      <point x="475" y="1100" type="curve"/>
      <point x="472" y="1100" type="line"/>
      <point x="431" y="1088" type="line"/>
      <point x="407" y="1036"/>
      <point x="390" y="947"/>
      <point x="390" y="826" type="curve" smooth="yes"/>
      <point x="390" y="765" type="line"/>
      <point x="390" y="561"/>
      <point x="480" y="431"/>
      <point x="670" y="431" type="curve" smooth="yes"/>
      <point x="847" y="431"/>
      <point x="937" y="542"/>
      <point x="937" y="744" type="curve" smooth="yes"/>
      <point x="937" y="788" type="line" smooth="yes"/>
      <point x="937" y="1013"/>
      <point x="824" y="1131"/>
      <point x="581" y="1131" type="curve" smooth="yes"/>
      <point x="22" y="1131" type="line"/>
    </contour>
  </outline>
</glyph>
<glyph name="MatraUuDflt.tm" format="2">
  <advance width="1463"/>
  <unicode hex="0BC2"/>
  <note>
MatraUuDflt.tm
</note>
  <outline>
    <contour>
      <point x="10" y="1131" type="line"/>
      <point x="10" y="1098" type="line"/>
      <point x="602" y="1098" type="line"/>
      <point x="807" y="1098"/>
      <point x="893" y="997"/>
      <point x="893" y="799" type="curve" smooth="yes"/>
      <point x="893" y="751" type="line" smooth="yes"/>
      <point x="893" y="577"/>
      <point x="825" y="492"/>
      <point x="681" y="492" type="curve" smooth="yes"/>
      <point x="511" y="492"/>
      <point x="437" y="598"/>
      <point x="437" y="844" type="curve" smooth="yes"/>
      <point x="437" y="939"/>
      <point x="441" y="1030"/>
      <point x="454" y="1106" type="curve"/>
      <point x="418" y="1108" type="line"/>
      <point x="406" y="1034"/>
      <point x="400" y="943"/>
      <point x="400" y="844" type="curve" smooth="yes"/>
      <point x="400" y="581"/>
      <point x="485" y="459"/>
      <point x="683" y="459" type="curve" smooth="yes"/>
      <point x="849" y="459"/>
      <point x="929" y="560"/>
      <point x="929" y="749" type="curve" smooth="yes"/>
      <point x="929" y="804" type="line" smooth="yes"/>
      <point x="929" y="1014"/>
      <point x="828" y="1131"/>
      <point x="603" y="1131" type="curve" smooth="yes"/>
      <point x="444" y="1131" type="line"/>
      <point x="435" y="1131" type="line"/>
    </contour>
    <contour>
      <point x="888" y="1494" type="curve" smooth="yes"/>
      <point x="600" y="1494"/>
      <point x="458" y="1341"/>
      <point x="419" y="1112" type="curve"/>
      <point x="455" y="1111" type="line"/>
      <point x="493" y="1318"/>
      <point x="618" y="1460"/>
      <point x="888" y="1460" type="curve" smooth="yes"/>
      <point x="1192" y="1460"/>
      <point x="1308" y="1277"/>
      <point x="1308" y="943" type="curve" smooth="yes"/>
      <point x="1308" y="730"/>
      <point x="1289" y="535"/>
      <point x="1249" y="360" type="curve"/>
      <point x="1289" y="360" type="line"/>
      <point x="1325" y="534"/>
      <point x="1345" y="730"/>
      <point x="1345" y="943" type="curve" smooth="yes"/>
      <point x="1345" y="1301"/>
      <point x="1209" y="1494"/>
    </contour>
  </outline>
</glyph>
<glyph name="MatraE.tm" format="2">
  <advance width="1584"/>
  <unicode hex="0BC6"/>
  <note>
MatraE.tm
</note>
  <outline>
    <contour>
      <point x="798" y="1366" type="curve" smooth="yes"/>
      <point x="395" y="1366"/>
      <point x="180" y="1142"/>
      <point x="180" y="720" type="curve" smooth="yes"/>
      <point x="180" y="520" type="line" smooth="yes"/>
      <point x="180" y="181"/>
      <point x="331" y="-20"/>
      <point x="682" y="-20" type="curve" smooth="yes"/>
      <point x="931" y="-20"/>
      <point x="1041" y="115"/>
      <point x="1041" y="346" type="curve" smooth="yes"/>
      <point x="1041" y="439" type="line" smooth="yes"/>
      <point x="1041" y="640"/>
      <point x="954" y="747"/>
      <point x="774" y="747" type="curve" smooth="yes"/>
      <point x="598" y="747"/>
      <point x="493" y="639"/>
      <point x="493" y="435" type="curve"/>
      <point x="493" y="315" type="line" smooth="yes"/>
      <point x="493" y="187"/>
      <point x="532" y="84"/>
      <point x="582" y="20" type="curve"/>
      <point x="582" y="11" type="line"/>
      <point x="629" y="6" type="line"/>
      <point x="569" y="79"/>
      <point x="529" y="190"/>
      <point x="529" y="314" type="curve" smooth="yes"/>
      <point x="529" y="434" type="line" smooth="yes"/>
      <point x="529" y="622"/>
      <point x="623" y="713"/>
      <point x="774" y="713" type="curve" smooth="yes"/>
      <point x="932" y="713"/>
      <point x="1004" y="620"/>
      <point x="1004" y="437" type="curve" smooth="yes"/>
      <point x="1004" y="347" type="line" smooth="yes"/>
      <point x="1004" y="137"/>
      <point x="910" y="13"/>
      <point x="682" y="13" type="curve" smooth="yes"/>
      <point x="660" y="13"/>
      <point x="637" y="14"/>
      <point x="599" y="18" type="curve"/>
      <point x="582" y="20" type="line"/>
      <point x="582" y="20" type="line"/>
      <point x="327" y="59"/>
      <point x="217" y="234"/>
      <point x="217" y="523" type="curve" smooth="yes"/>
      <point x="217" y="719" type="line"/>
      <point x="217" y="1120"/>
      <point x="418" y="1332"/>
      <point x="798" y="1332" type="curve" smooth="yes"/>
      <point x="1215" y="1332"/>
      <point x="1348" y="1102"/>
      <point x="1348" y="691" type="curve"/>
      <point x="1348" y="0" type="line"/>
      <point x="1384" y="0" type="line"/>
      <point x="1384" y="693" type="line"/>
      <point x="1384" y="1126"/>
      <point x="1234" y="1366"/>
    </contour>
  </outline>
</glyph>
<glyph name="MatraEe.tm" format="2">
  <advance width="1208"/>
  <unicode hex="0BC7"/>
  <note>
MatraEe.tm
</note>
  <outline>
    <contour>
      <point x="175" y="822" type="curve" smooth="yes"/>
      <point x="175" y="572" type="line"/>
      <point x="175" y="188"/>
      <point x="345" y="-20"/>
      <point x="703" y="-20" type="curve" smooth="yes"/>
      <point x="957" y="-20"/>
      <point x="1068" y="101"/>
      <point x="1068" y="307" type="curve" smooth="yes"/>
      <point x="1068" y="320" type="line" smooth="yes"/>
      <point x="1068" y="502"/>
      <point x="987" y="601"/>
      <point x="819" y="601" type="curve" smooth="yes"/>
      <point x="656" y="601"/>
      <point x="558" y="502"/>
      <point x="558" y="313" type="curve" smooth="yes"/>
      <point x="558" y="294" type="line" smooth="yes"/>
      <point x="558" y="155"/>
      <point x="614" y="60"/>
      <point x="695" y="13" type="curve"/>
      <point x="695" y="6" type="line"/>
      <point x="748" y="6" type="line"/>
      <point x="650" y="61"/>
      <point x="593" y="156"/>
      <point x="593" y="293" type="curve" smooth="yes"/>
      <point x="593" y="312" type="line" smooth="yes"/>
      <point x="593" y="485"/>
      <point x="682" y="567"/>
      <point x="819" y="567" type="curve" smooth="yes"/>
      <point x="966" y="567"/>
      <point x="1032" y="481"/>
      <point x="1032" y="318" type="curve" smooth="yes"/>
      <point x="1032" y="308" type="line" smooth="yes"/>
      <point x="1032" y="122"/>
      <point x="934" y="13"/>
      <point x="705" y="13" type="curve" smooth="yes"/>
      <point x="703" y="13"/>
      <point x="698" y="13"/>
      <point x="695" y="13" type="curve"/>
      <point x="695" y="13" type="line"/>
      <point x="375" y="19"/>
      <point x="212" y="208"/>
      <point x="212" y="575" type="curve"/>
      <point x="212" y="819" type="line" smooth="yes"/>
      <point x="212" y="1187"/>
      <point x="375" y="1376"/>
      <point x="695" y="1381" type="curve"/>
      <point x="695" y="1381" type="line"/>
      <point x="698" y="1382"/>
      <point x="703" y="1382"/>
      <point x="705" y="1382" type="curve" smooth="yes"/>
      <point x="931" y="1382"/>
      <point x="1028" y="1273"/>
      <point x="1028" y="1088" type="curve" smooth="yes"/>
      <point x="1028" y="1079" type="line" smooth="yes"/>
      <point x="1028" y="916"/>
      <point x="963" y="832"/>
      <point x="819" y="832" type="curve" smooth="yes"/>
      <point x="684" y="832"/>
      <point x="597" y="912"/>
      <point x="597" y="1085" type="curve" smooth="yes"/>
      <point x="597" y="1104" type="line" smooth="yes"/>
      <point x="597" y="1240"/>
      <point x="653" y="1334"/>
      <point x="748" y="1389" type="curve"/>
      <point x="695" y="1389" type="line"/>
      <point x="695" y="1381" type="line"/>
      <point x="616" y="1335"/>
      <point x="562" y="1240"/>
      <point x="562" y="1103" type="curve" smooth="yes"/>
      <point x="562" y="1084" type="line" smooth="yes"/>
      <point x="562" y="895"/>
      <point x="658" y="798"/>
      <point x="819" y="798" type="curve" smooth="yes"/>
      <point x="984" y="798"/>
      <point x="1064" y="894"/>
      <point x="1064" y="1077" type="curve" smooth="yes"/>
      <point x="1064" y="1089" type="line" smooth="yes"/>
      <point x="1064" y="1294"/>
      <point x="954" y="1415"/>
      <point x="703" y="1415" type="curve" smooth="yes"/>
      <point x="345" y="1415"/>
      <point x="175" y="1207"/>
    </contour>
  </outline>
</glyph>
<glyph name="Six.tm" format="2">
  <advance width="2061"/>
  <unicode hex="0BEC"/>
  <note>
Six.tm
</note>
  <outline>
    <contour>
      <point x="888" y="624" type="line"/>
      <point x="1036" y="624" type="line" smooth="yes"/>
      <point x="1231" y="624"/>
      <point x="1294" y="552"/>
      <point x="1294" y="352" type="curve" smooth="yes"/>
      <point x="1294" y="0" type="line"/>
      <point x="1330" y="0" type="line"/>
      <point x="1330" y="352" type="line" smooth="yes"/>
      <point x="1330" y="552"/>
      <point x="1391" y="624"/>
      <point x="1577" y="624" type="curve" smooth="yes"/>
      <point x="2021" y="624" type="line"/>
      <point x="2012" y="656" type="line"/>
      <point x="1574" y="656" type="line" smooth="yes"/>
      <point x="1384" y="656"/>
      <point x="1320" y="578"/>
      <point x="1313" y="420" type="curve"/>
      <point x="1311" y="420" type="line"/>
      <point x="1304" y="578"/>
      <point x="1238" y="656"/>
      <point x="1039" y="656" type="curve" smooth="yes"/>
      <point x="888" y="656" type="line"/>
    </contour>
    <contour>
      <point x="1753" y="636" type="line"/>
      <point x="1753" y="0" type="line"/>
      <point x="1788" y="0" type="line"/>
      <point x="1788" y="636" type="line"/>
    </contour>
    <component base="KaComponent_Nonexporting" xOffset="88"/>
    <component base="KaBeak_Nonexporting" xOffset="953"/>
  </outline>
</glyph>
<glyph name="Ten.tm" format="2">
  <advance width="1658"/>
  <unicode hex="0BF0"/>
  <note>
Ten.tm
</note>
  <outline>
    <contour>
      <point x="770" y="1542" type="curve" smooth="yes"/>
      <point x="570" y="1542"/>
      <point x="368" y="1500"/>
      <point x="221" y="1444" type="curve"/>
      <point x="210" y="1407" type="line"/>
      <point x="363" y="1466"/>
      <point x="569" y="1508"/>
      <point x="768" y="1508" type="curve" smooth="yes"/>
      <point x="1242" y="1508"/>
      <point x="1419" y="1318"/>
      <point x="1419" y="798" type="curve" smooth="yes"/>
      <point x="1419" y="483" type="line" smooth="yes"/>
      <point x="1419" y="200"/>
      <point x="1346" y="14"/>
      <point x="1124" y="14" type="curve" smooth="yes"/>
      <point x="943" y="14"/>
      <point x="831" y="108"/>
      <point x="831" y="365" type="curve" smooth="yes"/>
      <point x="831" y="1131" type="line"/>
      <point x="795" y="1131" type="line"/>
      <point x="795" y="349" type="line"/>
      <point x="795" y="117"/>
      <point x="721" y="15"/>
      <point x="542" y="15" type="curve" smooth="yes"/>
      <point x="375" y="15"/>
      <point x="283" y="119"/>
      <point x="283" y="349" type="curve" smooth="yes"/>
      <point x="283" y="1131" type="line"/>
      <point x="247" y="1131" type="line"/>
      <point x="247" y="347" type="line" smooth="yes"/>
      <point x="247" y="99"/>
      <point x="354" y="-19"/>
      <point x="542" y="-19" type="curve" smooth="yes"/>
      <point x="723" y="-19"/>
      <point x="803" y="83"/>
      <point x="815" y="267" type="curve"/>
      <point x="817" y="267" type="line"/>
      <point x="830" y="86"/>
      <point x="937" y="-19"/>
      <point x="1126" y="-19" type="curve" smooth="yes"/>
      <point x="1367" y="-19"/>
      <point x="1456" y="179"/>
      <point x="1456" y="481" type="curve" smooth="yes"/>
      <point x="1456" y="799" type="line" smooth="yes"/>
      <point x="1456" y="1334"/>
      <point x="1266" y="1542"/>
    </contour>
  </outline>
</glyph>
<glyph name="MonthSign.tm" format="2">
  <advance width="1617"/>
  <unicode hex="0BF4"/>
  <note>
MonthSign.tm
</note>
  <anchor x="793" y="1245" name="top"/>
  <outline>
    <contour>
      <point x="1638" y="1864" type="curve" smooth="yes"/>
      <point x="1475" y="1864"/>
      <point x="1382" y="1763"/>
      <point x="1382" y="1563" type="curve" smooth="yes"/>
      <point x="1382" y="1515" type="line"/>
      <point x="1380" y="1515" type="line"/>
      <point x="1371" y="1644"/>
      <point x="1305" y="1724"/>
      <point x="1171" y="1724" type="curve" smooth="yes"/>
      <point x="1022" y="1724"/>
      <point x="942" y="1618"/>
      <point x="942" y="1439" type="curve"/>
      <point x="942" y="1389" type="line" smooth="yes"/>
      <point x="942" y="1260"/>
      <point x="981" y="1167"/>
      <point x="1026" y="1116" type="curve"/>
      <point x="1067" y="1116" type="line"/>
      <point x="1012" y="1176"/>
      <point x="978" y="1263"/>
      <point x="978" y="1389" type="curve" smooth="yes"/>
      <point x="978" y="1437" type="line"/>
      <point x="978" y="1596"/>
      <point x="1042" y="1689"/>
      <point x="1172" y="1689" type="curve" smooth="yes"/>
      <point x="1306" y="1689"/>
      <point x="1369" y="1609"/>
      <point x="1369" y="1413" type="curve" smooth="yes"/>
      <point x="1369" y="1330" type="line"/>
      <point x="1404" y="1330" type="line"/>
      <point x="1404" y="1539" type="line" smooth="yes"/>
      <point x="1404" y="1742"/>
      <point x="1493" y="1831"/>
      <point x="1638" y="1831" type="curve" smooth="yes"/>
      <point x="1774" y="1831"/>
      <point x="1838" y="1742"/>
      <point x="1838" y="1600" type="curve" smooth="yes"/>
      <point x="1838" y="1582" type="line" smooth="yes"/>
      <point x="1838" y="1412"/>
      <point x="1798" y="1330"/>
      <point x="1704" y="1242" type="curve"/>
      <point x="1704" y="1234" type="line"/>
      <point x="2228" y="1234" type="line"/>
      <point x="2233" y="1266" type="line"/>
      <point x="1750" y="1266" type="line"/>
      <point x="1752" y="1248" type="line"/>
      <point x="1831" y="1321"/>
      <point x="1874" y="1410"/>
      <point x="1874" y="1581" type="curve" smooth="yes"/>
      <point x="1874" y="1600" type="line" smooth="yes"/>
      <point x="1874" y="1764"/>
      <point x="1794" y="1864"/>
    </contour>
    <component base="Ma.tm"/>
  </outline>
</glyph>
<glyph name="YearSign.tm" format="2">
  <advance width="4467"/>
  <unicode hex="0BF5"/>
  <note>
YearSign.tm
</note>
  <outline>
    <contour>
      <point x="2697" y="1109" type="line"/>
      <point x="2697" y="0" type="line"/>
      <point x="2733" y="0" type="line"/>
      <point x="2733" y="1109" type="line"/>
    </contour>
    <contour>
      <point x="1782" y="0" type="line"/>
      <point x="2155" y="0" type="line"/>
      <point x="2155" y="32" type="line"/>
      <point x="1782" y="32" type="line"/>
    </contour>
    <contour>
      <point x="1836" y="1669" type="line" smooth="yes"/>
      <point x="671" y="1669"/>
      <point x="175" y="1338"/>
      <point x="175" y="581" type="curve" smooth="yes"/>
      <point x="175" y="519" type="line" smooth="yes"/>
      <point x="175" y="-230"/>
      <point x="660" y="-559"/>
      <point x="1797" y="-559" type="curve" smooth="yes"/>
      <point x="1897" y="-559" type="line" smooth="yes"/>
      <point x="2879" y="-559"/>
      <point x="3299" y="-277"/>
      <point x="3299" y="300" type="curve" smooth="yes"/>
      <point x="3299" y="353" type="line" smooth="yes"/>
      <point x="3299" y="601"/>
      <point x="3216" y="734"/>
      <point x="3017" y="734" type="curve" smooth="yes"/>
      <point x="2862" y="734"/>
      <point x="2765" y="636"/>
      <point x="2733" y="504" type="curve"/>
      <point x="2720" y="504" type="line"/>
      <point x="2720" y="411" type="line"/>
      <point x="2727" y="411" type="line"/>
      <point x="2761" y="595"/>
      <point x="2861" y="699"/>
      <point x="3014" y="699" type="curve" smooth="yes"/>
      <point x="3196" y="699"/>
      <point x="3262" y="576"/>
      <point x="3262" y="350" type="curve" smooth="yes"/>
      <point x="3262" y="300" type="line" smooth="yes"/>
      <point x="3262" y="-263"/>
      <point x="2847" y="-524"/>
      <point x="1897" y="-524" type="curve" smooth="yes"/>
      <point x="1797" y="-524" type="line" smooth="yes"/>
      <point x="688" y="-524"/>
      <point x="212" y="-216"/>
      <point x="212" y="520" type="curve" smooth="yes"/>
      <point x="212" y="581" type="line" smooth="yes"/>
      <point x="212" y="1324"/>
      <point x="699" y="1635"/>
      <point x="1836" y="1635" type="curve" smooth="yes"/>
      <point x="1981" y="1635" type="line" smooth="yes"/>
      <point x="3147" y="1635"/>
      <point x="3646" y="1332"/>
      <point x="3661" y="582" type="curve" smooth="yes"/>
      <point x="3665" y="381" type="line" smooth="yes"/>
      <point x="3670" y="116"/>
      <point x="3768" y="-19"/>
      <point x="3979" y="-19" type="curve" smooth="yes"/>
      <point x="4190" y="-19"/>
      <point x="4287" y="126"/>
      <point x="4287" y="402" type="curve" smooth="yes"/>
      <point x="4287" y="692" type="line" smooth="yes"/>
      <point x="4287" y="977"/>
      <point x="4198" y="1150"/>
      <point x="3921" y="1150" type="curve" smooth="yes"/>
      <point x="3887" y="1150"/>
      <point x="3855" y="1146"/>
      <point x="3828" y="1142" type="curve"/>
      <point x="3817" y="1106" type="line"/>
      <point x="3849" y="1111"/>
      <point x="3883" y="1115"/>
      <point x="3922" y="1115" type="curve" smooth="yes"/>
      <point x="4178" y="1115"/>
      <point x="4250" y="955"/>
      <point x="4250" y="692" type="curve" smooth="yes"/>
      <point x="4250" y="403" type="line" smooth="yes"/>
      <point x="4250" y="150"/>
      <point x="4170" y="15"/>
      <point x="3979" y="15" type="curve" smooth="yes"/>
      <point x="3787" y="15"/>
      <point x="3707" y="136"/>
      <point x="3701" y="385" type="curve" smooth="yes"/>
      <point x="3696" y="590" type="line" smooth="yes"/>
      <point x="3678" y="1345"/>
      <point x="3175" y="1669"/>
      <point x="1981" y="1669" type="curve" smooth="yes"/>
    </contour>
    <contour>
      <point x="2896" y="1131" type="line"/>
      <point x="2123" y="1131" type="line"/>
      <point x="2123" y="0" type="line"/>
      <point x="2159" y="0" type="line"/>
      <point x="2159" y="1098" type="line"/>
      <point x="2896" y="1098" type="line"/>
    </contour>
    <component base="Va_NonExporting" xOffset="565"/>
    <component base="RaBeak_Nonexporting" xOffset="2699"/>
  </outline>
</glyph>
<glyph name="CreditSign.tm" format="2">
  <advance width="2529"/>
  <unicode hex="0BF7"/>
  <note>
CreditSign.tm
</note>
  <outline>
    <contour>
      <point x="1888" y="781" type="curve" smooth="yes"/>
      <point x="1708" y="781"/>
      <point x="1596" y="663"/>
      <point x="1596" y="443" type="curve" smooth="yes"/>
      <point x="1596" y="421" type="line"/>
      <point x="1594" y="421" type="line"/>
      <point x="1587" y="578"/>
      <point x="1518" y="656"/>
      <point x="1313" y="656" type="curve" smooth="yes"/>
      <point x="1126" y="656" type="line"/>
      <point x="1126" y="624" type="line"/>
      <point x="1311" y="624" type="line" smooth="yes"/>
      <point x="1511" y="624"/>
      <point x="1580" y="550"/>
      <point x="1580" y="353" type="curve" smooth="yes"/>
      <point x="1580" y="0" type="line"/>
      <point x="1616" y="0" type="line"/>
      <point x="1616" y="413" type="line" smooth="yes"/>
      <point x="1616" y="648"/>
      <point x="1727" y="747"/>
      <point x="1884" y="747" type="curve" smooth="yes"/>
      <point x="2047" y="747"/>
      <point x="2120" y="648"/>
      <point x="2120" y="472" type="curve" smooth="yes"/>
      <point x="2120" y="374" type="line" smooth="yes"/>
      <point x="2120" y="197"/>
      <point x="2070" y="103"/>
      <point x="1984" y="8" type="curve"/>
      <point x="1984" y="0" type="line"/>
      <point x="2512" y="0" type="line"/>
      <point x="2521" y="33" type="line"/>
      <point x="2028" y="33" type="line"/>
      <point x="2032" y="14" type="line"/>
      <point x="2102" y="92"/>
      <point x="2157" y="192"/>
      <point x="2157" y="373" type="curve" smooth="yes"/>
      <point x="2157" y="473" type="line" smooth="yes"/>
      <point x="2157" y="672"/>
      <point x="2071" y="781"/>
    </contour>
    <component base="VowelE.tm"/>
  </outline>
</glyph>
<glyph name="CaMatraUu.tm" format="2">
  <advance width="2377"/>
  <note>
CaMatraUu.tm
</note>
  <outline>
    <contour>
      <point x="1388" y="624" type="line"/>
      <point x="1791" y="624" type="line"/>
      <point x="1803" y="624" type="line"/>
      <point x="2163" y="624" type="line"/>
      <point x="2154" y="656" type="line"/>
      <point x="1388" y="656" type="line"/>
    </contour>
    <contour>
      <point x="1777" y="638" type="line"/>
      <point x="1777" y="0" type="line"/>
      <point x="1813" y="0" type="line"/>
      <point x="1813" y="638" type="line"/>
    </contour>
    <contour>
      <point x="305" y="1131" type="line"/>
      <point x="247" y="997"/>
      <point x="180" y="744"/>
      <point x="180" y="425" type="curve" smooth="yes"/>
      <point x="180" y="-200"/>
      <point x="551" y="-529"/>
      <point x="1320" y="-529" type="curve" smooth="yes"/>
      <point x="1324" y="-529" type="line" smooth="yes"/>
      <point x="1971" y="-529"/>
      <point x="2297" y="-294"/>
      <point x="2297" y="132" type="curve" smooth="yes"/>
      <point x="2297" y="141" type="line" smooth="yes"/>
      <point x="2297" y="325"/>
      <point x="2219" y="435"/>
      <point x="2057" y="435" type="curve" smooth="yes"/>
      <point x="1928" y="435"/>
      <point x="1843" y="352"/>
      <point x="1813" y="260" type="curve"/>
      <point x="1800" y="260" type="line"/>
      <point x="1800" y="179" type="line"/>
      <point x="1807" y="179" type="line"/>
      <point x="1839" y="316"/>
      <point x="1925" y="402"/>
      <point x="2053" y="402" type="curve" smooth="yes"/>
      <point x="2200" y="402"/>
      <point x="2261" y="302"/>
      <point x="2261" y="138" type="curve" smooth="yes"/>
      <point x="2261" y="134" type="line" smooth="yes"/>
      <point x="2261" y="-277"/>
      <point x="1950" y="-495"/>
      <point x="1324" y="-495" type="curve" smooth="yes"/>
      <point x="1320" y="-495" type="line" smooth="yes"/>
      <point x="575" y="-495"/>
      <point x="217" y="-178"/>
      <point x="217" y="425" type="curve" smooth="yes"/>
      <point x="217" y="733"/>
      <point x="278" y="981"/>
      <point x="344" y="1131" type="curve"/>
    </contour>
    <component base="KaComponent_Nonexporting" xOffset="595"/>
    <component base="KaBeak_Nonexporting" xOffset="1459"/>
  </outline>
</glyph>
<glyph name="HaMatraI_Simple.tm" format="2">
  <advance width="3364"/>
  <note>
HaMatraI.tm
</note>
  <anchor x="1308" y="1245" name="top"/>
  <outline>
    <contour>
      <point x="2783" y="1698" type="curve" smooth="yes"/>
      <point x="2550" y="1698"/>
      <point x="2413" y="1564"/>
      <point x="2413" y="1329" type="curve" smooth="yes"/>
      <point x="2413" y="1317" type="line" smooth="yes"/>
      <point x="2413" y="1245"/>
      <point x="2430" y="1179"/>
      <point x="2453" y="1138" type="curve"/>
      <point x="2490" y="1138" type="line"/>
      <point x="2466" y="1180"/>
      <point x="2448" y="1243"/>
      <point x="2448" y="1316" type="curve" smooth="yes"/>
      <point x="2448" y="1325" type="line" smooth="yes"/>
      <point x="2448" y="1546"/>
      <point x="2569" y="1663"/>
      <point x="2783" y="1663" type="curve" smooth="yes"/>
      <point x="3020" y="1663"/>
      <point x="3123" y="1542"/>
      <point x="3123" y="1256" type="curve" smooth="yes"/>
      <point x="3123" y="0" type="line"/>
      <point x="3159" y="0" type="line"/>
      <point x="3159" y="1261" type="line" smooth="yes"/>
      <point x="3159" y="1563"/>
      <point x="3040" y="1698"/>
    </contour>
    <component base="Ha_Simple.tm"/>
  </outline>
</glyph>
<glyph name="HaMatraUu_Simple_SimpleUu.tm" format="2">
  <advance width="4102"/>
  <note>
HaMatraUu.tm
</note>
  <outline>
    <contour>
      <point x="1849" y="1150" type="curve" smooth="yes"/>
      <point x="1659" y="1150"/>
      <point x="1551" y="1033"/>
      <point x="1551" y="788" type="curve" smooth="yes"/>
      <point x="1551" y="0" type="line"/>
      <point x="1587" y="0" type="line"/>
      <point x="1587" y="786" type="line" smooth="yes"/>
      <point x="1587" y="1012"/>
      <point x="1680" y="1115"/>
      <point x="1849" y="1115" type="curve" smooth="yes"/>
      <point x="2030" y="1115"/>
      <point x="2105" y="1013"/>
      <point x="2105" y="786" type="curve"/>
      <point x="2105" y="0" type="line"/>
      <point x="2141" y="0" type="line"/>
      <point x="2141" y="763" type="line" smooth="yes"/>
      <point x="2141" y="1019"/>
      <point x="2254" y="1115"/>
      <point x="2433" y="1115" type="curve" smooth="yes"/>
      <point x="2619" y="1115"/>
      <point x="2692" y="1009"/>
      <point x="2692" y="836" type="curve" smooth="yes"/>
      <point x="2692" y="816" type="line" smooth="yes"/>
      <point x="2692" y="646"/>
      <point x="2618" y="550"/>
      <point x="2418" y="548" type="curve" smooth="yes"/>
      <point x="2327" y="547" type="line"/>
      <point x="2327" y="516" type="line"/>
      <point x="2414" y="515" type="line" smooth="yes"/>
      <point x="2620" y="513"/>
      <point x="2724" y="424"/>
      <point x="2724" y="196" type="curve" smooth="yes"/>
      <point x="2724" y="171" type="line" smooth="yes"/>
      <point x="2724" y="-169"/>
      <point x="2591" y="-285"/>
      <point x="2164" y="-285" type="curve" smooth="yes"/>
      <point x="120" y="-285" type="line"/>
      <point x="130" y="-318" type="line"/>
      <point x="2168" y="-318" type="line" smooth="yes"/>
      <point x="2617" y="-318"/>
      <point x="2761" y="-188"/>
      <point x="2761" y="169" type="curve" smooth="yes"/>
      <point x="2761" y="197" type="line" smooth="yes"/>
      <point x="2761" y="435"/>
      <point x="2646" y="523"/>
      <point x="2479" y="530" type="curve"/>
      <point x="2479" y="532" type="line"/>
      <point x="2640" y="541"/>
      <point x="2729" y="634"/>
      <point x="2729" y="816" type="curve" smooth="yes"/>
      <point x="2729" y="838" type="line" smooth="yes"/>
      <point x="2729" y="962"/>
      <point x="2690" y="1061"/>
      <point x="2605" y="1109" type="curve"/>
      <point x="2594" y="1117" type="line"/>
      <point x="2552" y="1139"/>
      <point x="2499" y="1150"/>
      <point x="2435" y="1150" type="curve" smooth="yes"/>
      <point x="2250" y="1150"/>
      <point x="2140" y="1043"/>
      <point x="2126" y="859" type="curve"/>
      <point x="2125" y="859" type="line"/>
      <point x="2112" y="1046"/>
      <point x="2031" y="1150"/>
    </contour>
    <contour>
      <point x="1257" y="32" type="line"/>
      <point x="1257" y="0" type="line"/>
      <point x="1578" y="0" type="line"/>
      <point x="1578" y="32" type="line"/>
    </contour>
    <contour>
      <point x="2813" y="1131" type="line"/>
      <point x="2531" y="1131" type="line"/>
      <point x="2575" y="1098" type="line"/>
      <point x="2813" y="1098" type="line"/>
    </contour>
    <component base="Va_NonExporting" xOffset="25"/>
    <component base="MatraUuDflt_Simple.tm" xOffset="2645"/>
  </outline>
</glyph>
<glyph name="JaMatraI.tm" format="2">
  <advance width="2218"/>
  <note>
JaMatraI.tm
</note>
  <anchor x="1002" y="1245" name="top"/>
  <outline>
    <contour>
      <point x="1651" y="1698" type="curve" smooth="yes"/>
      <point x="1413" y="1698"/>
      <point x="1287" y="1564"/>
      <point x="1287" y="1340" type="curve" smooth="yes"/>
      <point x="1287" y="1335" type="line" smooth="yes"/>
      <point x="1287" y="1252"/>
      <point x="1306" y="1185"/>
      <point x="1331" y="1142" type="curve"/>
      <point x="1369" y="1142" type="line"/>
      <point x="1341" y="1190"/>
      <point x="1323" y="1249"/>
      <point x="1323" y="1335" type="curve" smooth="yes"/>
      <point x="1323" y="1338" type="line" smooth="yes"/>
      <point x="1323" y="1545"/>
      <point x="1434" y="1663"/>
      <point x="1651" y="1663" type="curve" smooth="yes"/>
      <point x="1883" y="1663"/>
      <point x="1977" y="1543"/>
      <point x="1977" y="1287" type="curve" smooth="yes"/>
      <point x="1977" y="0" type="line"/>
      <point x="2013" y="0" type="line"/>
      <point x="2013" y="1293" type="line" smooth="yes"/>
      <point x="2013" y="1564"/>
      <point x="1900" y="1698"/>
    </contour>
    <component base="Ja.tm"/>
  </outline>
</glyph>
<glyph name="JaMatraI_Fused.tm" format="2">
  <advance width="2228"/>
  <note>
JaMatraI.tm
</note>
  <anchor x="1006" y="1245" name="top"/>
  <outline>
    <contour>
      <point x="1661" y="1698" type="curve" smooth="yes"/>
      <point x="1423" y="1698"/>
      <point x="1297" y="1564"/>
      <point x="1297" y="1340" type="curve" smooth="yes"/>
      <point x="1297" y="1335" type="line" smooth="yes"/>
      <point x="1297" y="1252"/>
      <point x="1316" y="1185"/>
      <point x="1341" y="1142" type="curve"/>
      <point x="1379" y="1142" type="line"/>
      <point x="1351" y="1190"/>
      <point x="1333" y="1249"/>
      <point x="1333" y="1335" type="curve" smooth="yes"/>
      <point x="1333" y="1338" type="line" smooth="yes"/>
      <point x="1333" y="1545"/>
      <point x="1444" y="1663"/>
      <point x="1661" y="1663" type="curve" smooth="yes"/>
      <point x="1893" y="1663"/>
      <point x="1987" y="1543"/>
      <point x="1987" y="1287" type="curve" smooth="yes"/>
      <point x="1987" y="0" type="line"/>
      <point x="2023" y="0" type="line"/>
      <point x="2023" y="1293" type="line" smooth="yes"/>
      <point x="2023" y="1564"/>
      <point x="1910" y="1698"/>
    </contour>
    <component base="Ja_Fused.tm"/>
  </outline>
</glyph>
<glyph name="JaMatraIi_Fused_SimpleIi.tm" format="2">
  <advance width="1785"/>
  <note>
JaMatraIi.tm
</note>
  <anchor x="1006" y="1245" name="top"/>
  <outline>
    <contour>
      <point x="1509" y="1786" type="curve" smooth="yes"/>
      <point x="1341" y="1786"/>
      <point x="1240" y="1688"/>
      <point x="1240" y="1490" type="curve" smooth="yes"/>
      <point x="1240" y="1434" type="line" smooth="yes"/>
      <point x="1240" y="1299"/>
      <point x="1271" y="1203"/>
      <point x="1335" y="1146" type="curve"/>
      <point x="1382" y="1146" type="line"/>
      <point x="1303" y="1209"/>
      <point x="1276" y="1302"/>
      <point x="1276" y="1426" type="curve" smooth="yes"/>
      <point x="1276" y="1451" type="line"/>
      <point x="1276" y="1494" type="line" smooth="yes"/>
      <point x="1276" y="1669"/>
      <point x="1363" y="1753"/>
      <point x="1509" y="1753" type="curve" smooth="yes"/>
      <point x="1646" y="1753"/>
      <point x="1720" y="1686"/>
      <point x="1720" y="1558" type="curve" smooth="yes"/>
      <point x="1720" y="1543" type="line" smooth="yes"/>
      <point x="1720" y="1416"/>
      <point x="1655" y="1350"/>
      <point x="1514" y="1350" type="curve" smooth="yes"/>
      <point x="1390" y="1350"/>
      <point x="1304" y="1402"/>
      <point x="1272" y="1471" type="curve"/>
      <point x="1269" y="1471" type="line"/>
      <point x="1269" y="1439" type="line"/>
      <point x="1275" y="1439" type="line"/>
      <point x="1303" y="1395" type="line"/>
      <point x="1332" y="1359"/>
      <point x="1409" y="1317"/>
      <point x="1518" y="1317" type="curve" smooth="yes"/>
      <point x="1686" y="1317"/>
      <point x="1756" y="1404"/>
      <point x="1756" y="1542" type="curve" smooth="yes"/>
      <point x="1756" y="1559" type="line" smooth="yes"/>
      <point x="1756" y="1705"/>
      <point x="1668" y="1786"/>
    </contour>
    <component base="Ja_Fused.tm"/>
  </outline>
</glyph>
<glyph name="JaMatraU.tm" format="2">
  <advance width="2584"/>
  <note>
JaMatraU.tm
</note>
  <outline>
    <contour>
      <point x="1681" y="1131" type="line"/>
      <point x="1424" y="1131" type="line"/>
      <point x="1458" y="1098" type="line"/>
      <point x="1681" y="1098" type="line"/>
    </contour>
    <contour>
      <point x="608" y="1163" type="curve" smooth="yes"/>
      <point x="314" y="1163"/>
      <point x="160" y="1007"/>
      <point x="160" y="742" type="curve" smooth="yes"/>
      <point x="160" y="650" type="line" smooth="yes"/>
      <point x="160" y="453"/>
      <point x="248" y="341"/>
      <point x="438" y="341" type="curve" smooth="yes"/>
      <point x="618" y="341"/>
      <point x="700" y="441"/>
      <point x="700" y="624" type="curve" smooth="yes"/>
      <point x="700" y="667" type="line" smooth="yes"/>
      <point x="700" y="829"/>
      <point x="617" y="922"/>
      <point x="459" y="922" type="curve" smooth="yes"/>
      <point x="327" y="922"/>
      <point x="232" y="847"/>
      <point x="195" y="754" type="curve"/>
      <point x="187" y="754" type="line"/>
      <point x="187" y="670" type="line"/>
      <point x="214" y="796"/>
      <point x="319" y="888"/>
      <point x="455" y="888" type="curve" smooth="yes"/>
      <point x="596" y="888"/>
      <point x="664" y="805"/>
      <point x="664" y="666" type="curve" smooth="yes"/>
      <point x="664" y="626" type="line" smooth="yes"/>
      <point x="664" y="468"/>
      <point x="596" y="375"/>
      <point x="438" y="375" type="curve" smooth="yes"/>
      <point x="270" y="375"/>
      <point x="197" y="478"/>
      <point x="197" y="646" type="curve" smooth="yes"/>
      <point x="197" y="754" type="line"/>
      <point x="195" y="754" type="line"/>
      <point x="198" y="991"/>
      <point x="342" y="1129"/>
      <point x="608" y="1129" type="curve" smooth="yes"/>
      <point x="898" y="1129"/>
      <point x="1008" y="981"/>
      <point x="1008" y="701" type="curve" smooth="yes"/>
      <point x="1008" y="406" type="line"/>
      <point x="1043" y="406" type="line"/>
      <point x="1043" y="774" type="line" smooth="yes"/>
      <point x="1043" y="1024"/>
      <point x="1147" y="1121"/>
      <point x="1311" y="1121" type="curve" smooth="yes"/>
      <point x="1502" y="1121"/>
      <point x="1573" y="1001"/>
      <point x="1573" y="799" type="curve" smooth="yes"/>
      <point x="1573" y="680" type="line"/>
      <point x="1573" y="450"/>
      <point x="1474" y="335"/>
      <point x="1157" y="299" type="curve" smooth="yes"/>
      <point x="601" y="235" type="line" smooth="yes"/>
      <point x="299" y="200"/>
      <point x="189" y="95"/>
      <point x="189" y="-118" type="curve" smooth="yes"/>
      <point x="189" y="-130" type="line" smooth="yes"/>
      <point x="189" y="-311"/>
      <point x="285" y="-423"/>
      <point x="471" y="-423" type="curve" smooth="yes"/>
      <point x="649" y="-423"/>
      <point x="734" y="-328"/>
      <point x="852" y="-203" type="curve" smooth="yes"/>
      <point x="989" y="-58" type="line" smooth="yes"/>
      <point x="1102" y="62"/>
      <point x="1197" y="132"/>
      <point x="1340" y="132" type="curve" smooth="yes"/>
      <point x="1499" y="132"/>
      <point x="1569" y="42"/>
      <point x="1569" y="-105" type="curve" smooth="yes"/>
      <point x="1569" y="-124" type="line" smooth="yes"/>
      <point x="1569" y="-300"/>
      <point x="1487" y="-389"/>
      <point x="1309" y="-389" type="curve" smooth="yes"/>
      <point x="1219" y="-389"/>
      <point x="1128" y="-369"/>
      <point x="1039" y="-328" type="curve"/>
      <point x="1049" y="-368" type="line"/>
      <point x="1128" y="-402"/>
      <point x="1217" y="-423"/>
      <point x="1310" y="-423" type="curve" smooth="yes"/>
      <point x="1508" y="-423"/>
      <point x="1605" y="-319"/>
      <point x="1605" y="-124" type="curve" smooth="yes"/>
      <point x="1605" y="-103" type="line" smooth="yes"/>
      <point x="1605" y="64"/>
      <point x="1523" y="166"/>
      <point x="1340" y="166" type="curve" smooth="yes"/>
      <point x="1186" y="166"/>
      <point x="1082" y="91"/>
      <point x="964" y="-34" type="curve" smooth="yes"/>
      <point x="829" y="-177" type="line" smooth="yes"/>
      <point x="715" y="-298"/>
      <point x="630" y="-389"/>
      <point x="472" y="-389" type="curve" smooth="yes"/>
      <point x="305" y="-389"/>
      <point x="225" y="-294"/>
      <point x="225" y="-127" type="curve" smooth="yes"/>
      <point x="225" y="-118" type="line" smooth="yes"/>
      <point x="225" y="74"/>
      <point x="320" y="170"/>
      <point x="607" y="203" type="curve" smooth="yes"/>
      <point x="1162" y="266" type="line" smooth="yes"/>
      <point x="1502" y="305"/>
      <point x="1609" y="436"/>
      <point x="1609" y="681" type="curve" smooth="yes"/>
      <point x="1609" y="800" type="line" smooth="yes"/>
      <point x="1609" y="943"/>
      <point x="1574" y="1052"/>
      <point x="1486" y="1108" type="curve"/>
      <point x="1481" y="1115" type="line"/>
      <point x="1441" y="1140"/>
      <point x="1384" y="1155"/>
      <point x="1312" y="1155" type="curve" smooth="yes"/>
      <point x="1124" y="1155"/>
      <point x="1029" y="1036"/>
      <point x="1023" y="830" type="curve"/>
      <point x="1021" y="830" type="line"/>
      <point x="996" y="1045"/>
      <point x="868" y="1163"/>
    </contour>
    <component base="MatraUDflt.tm" xOffset="1544"/>
  </outline>
</glyph>
<glyph name="KssaMatraI_Simple_Fly.tm" format="2">
  <advance width="3074"/>
  <note>
KshaMatraI.tm
</note>
  <anchor x="1758" y="1245" name="top"/>
  <outline>
    <contour>
      <point x="2941" y="1517" type="line"/>
      <point x="2668" y="1517" type="line" smooth="yes"/>
      <point x="2502" y="1517"/>
      <point x="2439" y="1459"/>
      <point x="2439" y="1346" type="curve" smooth="yes"/>
      <point x="2439" y="1271"/>
      <point x="2480" y="1196"/>
      <point x="2513" y="1135" type="curve"/>
      <point x="2552" y="1135" type="line"/>
      <point x="2515" y="1202"/>
      <point x="2476" y="1271"/>
      <point x="2476" y="1342" type="curve" smooth="yes"/>
      <point x="2476" y="1438"/>
      <point x="2528" y="1483"/>
      <point x="2674" y="1483" type="curve" smooth="yes"/>
      <point x="2951" y="1483" type="line"/>
    </contour>
    <component base="Kssa_Simple.tm"/>
  </outline>
</glyph>
<glyph name="KssaMatraIi.tm" format="2">
  <advance width="3074"/>
  <note>
KshaMatraIi.tm
</note>
  <anchor x="1757" y="1245" name="top"/>
  <outline>
    <contour>
      <point x="2800" y="1786" type="curve" smooth="yes"/>
      <point x="2559" y="1786"/>
      <point x="2433" y="1665"/>
      <point x="2433" y="1442" type="curve" smooth="yes"/>
      <point x="2433" y="1428" type="line" smooth="yes"/>
      <point x="2433" y="1295"/>
      <point x="2481" y="1186"/>
      <point x="2536" y="1129" type="curve"/>
      <point x="2577" y="1129" type="line"/>
      <point x="2512" y="1195"/>
      <point x="2469" y="1297"/>
      <point x="2469" y="1428" type="curve" smooth="yes"/>
      <point x="2469" y="1440" type="line" smooth="yes"/>
      <point x="2469" y="1618"/>
      <point x="2555" y="1726"/>
      <point x="2722" y="1748" type="curve"/>
      <point x="2722" y="1748" type="line"/>
      <point x="2748" y="1752"/>
      <point x="2774" y="1753"/>
      <point x="2802" y="1753" type="curve" smooth="yes"/>
      <point x="2985" y="1753"/>
      <point x="3065" y="1677"/>
      <point x="3065" y="1531" type="curve" smooth="yes"/>
      <point x="3065" y="1526" type="line" smooth="yes"/>
      <point x="3065" y="1397"/>
      <point x="3007" y="1334"/>
      <point x="2888" y="1334" type="curve" smooth="yes"/>
      <point x="2760" y="1334"/>
      <point x="2703" y="1409"/>
      <point x="2703" y="1539" type="curve" smooth="yes"/>
      <point x="2703" y="1555" type="line" smooth="yes"/>
      <point x="2703" y="1638"/>
      <point x="2720" y="1709"/>
      <point x="2758" y="1757" type="curve"/>
      <point x="2722" y="1758" type="line"/>
      <point x="2722" y="1748" type="line"/>
      <point x="2689" y="1706"/>
      <point x="2667" y="1638"/>
      <point x="2667" y="1551" type="curve" smooth="yes"/>
      <point x="2667" y="1534" type="line" smooth="yes"/>
      <point x="2667" y="1391"/>
      <point x="2739" y="1301"/>
      <point x="2889" y="1301" type="curve" smooth="yes"/>
      <point x="3031" y="1301"/>
      <point x="3100" y="1379"/>
      <point x="3100" y="1524" type="curve" smooth="yes"/>
      <point x="3100" y="1533" type="line" smooth="yes"/>
      <point x="3100" y="1694"/>
      <point x="3006" y="1786"/>
    </contour>
    <component base="Kssa.tm"/>
  </outline>
</glyph>
<glyph name="KssaMatraIi_Simple_SimpleIi.tm" format="2">
  <advance width="3026"/>
  <note>
KshaMatraIi.tm
</note>
  <anchor x="1758" y="1245" name="top"/>
  <outline>
    <contour>
      <point x="2671" y="1786" type="curve" smooth="yes"/>
      <point x="2503" y="1786"/>
      <point x="2402" y="1688"/>
      <point x="2402" y="1490" type="curve" smooth="yes"/>
      <point x="2402" y="1434" type="line" smooth="yes"/>
      <point x="2402" y="1285"/>
      <point x="2444" y="1183"/>
      <point x="2519" y="1129" type="curve"/>
      <point x="2566" y="1129" type="line"/>
      <point x="2474" y="1192"/>
      <point x="2438" y="1290"/>
      <point x="2438" y="1426" type="curve" smooth="yes"/>
      <point x="2438" y="1451" type="line"/>
      <point x="2438" y="1494" type="line" smooth="yes"/>
      <point x="2438" y="1669"/>
      <point x="2525" y="1753"/>
      <point x="2671" y="1753" type="curve" smooth="yes"/>
      <point x="2808" y="1753"/>
      <point x="2882" y="1686"/>
      <point x="2882" y="1558" type="curve" smooth="yes"/>
      <point x="2882" y="1543" type="line" smooth="yes"/>
      <point x="2882" y="1416"/>
      <point x="2817" y="1350"/>
      <point x="2676" y="1350" type="curve" smooth="yes"/>
      <point x="2552" y="1350"/>
      <point x="2466" y="1402"/>
      <point x="2434" y="1471" type="curve"/>
      <point x="2431" y="1471" type="line"/>
      <point x="2431" y="1439" type="line"/>
      <point x="2437" y="1439" type="line"/>
      <point x="2465" y="1395" type="line"/>
      <point x="2494" y="1359"/>
      <point x="2571" y="1317"/>
      <point x="2680" y="1317" type="curve" smooth="yes"/>
      <point x="2848" y="1317"/>
      <point x="2918" y="1404"/>
      <point x="2918" y="1542" type="curve" smooth="yes"/>
      <point x="2918" y="1559" type="line" smooth="yes"/>
      <point x="2918" y="1705"/>
      <point x="2830" y="1786"/>
    </contour>
    <component base="Kssa_Simple.tm"/>
  </outline>
</glyph>
<glyph name="Kssa_Simple.tm" format="2">
  <advance width="3074"/>
  <note>
Ksha.tm
</note>
  <anchor x="1758" y="1245" name="top"/>
  <outline>
    <contour>
      <point x="874" y="624" type="line"/>
      <point x="1025" y="624" type="line" smooth="yes"/>
      <point x="1225" y="624"/>
      <point x="1294" y="549"/>
      <point x="1294" y="352" type="curve" smooth="yes"/>
      <point x="1294" y="0" type="line"/>
      <point x="1330" y="0" type="line"/>
      <point x="1330" y="412" type="line" smooth="yes"/>
      <point x="1330" y="646"/>
      <point x="1441" y="747"/>
      <point x="1598" y="747" type="curve" smooth="yes"/>
      <point x="1761" y="747"/>
      <point x="1834" y="647"/>
      <point x="1834" y="472" type="curve" smooth="yes"/>
      <point x="1834" y="374" type="line" smooth="yes"/>
      <point x="1834" y="197"/>
      <point x="1784" y="103"/>
      <point x="1698" y="8" type="curve"/>
      <point x="1698" y="0" type="line"/>
      <point x="2240" y="0" type="line"/>
      <point x="2240" y="33" type="line"/>
      <point x="1742" y="33" type="line"/>
      <point x="1746" y="14" type="line"/>
      <point x="1816" y="92"/>
      <point x="1871" y="192"/>
      <point x="1871" y="373" type="curve" smooth="yes"/>
      <point x="1871" y="473" type="line" smooth="yes"/>
      <point x="1871" y="672"/>
      <point x="1785" y="781"/>
      <point x="1602" y="781" type="curve" smooth="yes"/>
      <point x="1422" y="781"/>
      <point x="1310" y="662"/>
      <point x="1310" y="442" type="curve" smooth="yes"/>
      <point x="1310" y="420" type="line"/>
      <point x="1308" y="420" type="line"/>
      <point x="1301" y="578"/>
      <point x="1232" y="656"/>
      <point x="1027" y="656" type="curve" smooth="yes"/>
      <point x="874" y="656" type="line"/>
    </contour>
    <component base="KaComponent_Nonexporting" xOffset="88"/>
    <component base="Ssa_Above_NonExporting" xOffset="1797"/>
    <component base="KaBeak_Nonexporting" xOffset="953"/>
    <component base="Ssa_Below_Simple_NonExporting" xOffset="2260"/>
  </outline>
</glyph>
<glyph name="LaMatraI.tm" format="2">
  <advance width="2324"/>
  <note>
LaMatraI.tm
</note>
  <outline>
    <contour>
      <point x="657" y="1150" type="curve" smooth="yes"/>
      <point x="335" y="1150"/>
      <point x="170" y="958"/>
      <point x="170" y="589" type="curve" smooth="yes"/>
      <point x="170" y="356" type="line" smooth="yes"/>
      <point x="170" y="119"/>
      <point x="268" y="-20"/>
      <point x="477" y="-20" type="curve" smooth="yes"/>
      <point x="666" y="-20"/>
      <point x="756" y="100"/>
      <point x="756" y="300" type="curve" smooth="yes"/>
      <point x="756" y="423" type="line" smooth="yes"/>
      <point x="756" y="618"/>
      <point x="667" y="724"/>
      <point x="492" y="724" type="curve" smooth="yes"/>
      <point x="347" y="724"/>
      <point x="244" y="637"/>
      <point x="206" y="531" type="curve"/>
      <point x="198" y="531" type="line"/>
      <point x="198" y="443" type="line"/>
      <point x="228" y="584"/>
      <point x="335" y="689"/>
      <point x="488" y="689" type="curve" smooth="yes"/>
      <point x="646" y="689"/>
      <point x="720" y="595"/>
      <point x="720" y="422" type="curve" smooth="yes"/>
      <point x="720" y="301" type="line" smooth="yes"/>
      <point x="720" y="119"/>
      <point x="643" y="14"/>
      <point x="477" y="14" type="curve" smooth="yes"/>
      <point x="293" y="14"/>
      <point x="207" y="139"/>
      <point x="207" y="345" type="curve"/>
      <point x="207" y="531" type="line"/>
      <point x="206" y="531" type="line"/>
      <point x="206" y="552"/>
      <point x="206" y="567"/>
      <point x="206" y="588" type="curve" smooth="yes"/>
      <point x="206" y="934"/>
      <point x="356" y="1115"/>
      <point x="657" y="1115" type="curve" smooth="yes"/>
      <point x="955" y="1115"/>
      <point x="1062" y="935"/>
      <point x="1062" y="614" type="curve" smooth="yes"/>
      <point x="1062" y="381" type="line" smooth="yes"/>
      <point x="1062" y="116"/>
      <point x="1165" y="-19"/>
      <point x="1377" y="-19" type="curve" smooth="yes"/>
      <point x="1588" y="-19"/>
      <point x="1685" y="126"/>
      <point x="1685" y="403" type="curve" smooth="yes"/>
      <point x="1685" y="693" type="line" smooth="yes"/>
      <point x="1685" y="977"/>
      <point x="1596" y="1150"/>
      <point x="1323" y="1150" type="curve" smooth="yes"/>
      <point x="1301" y="1150"/>
      <point x="1273" y="1147"/>
      <point x="1257" y="1143" type="curve"/>
      <point x="1272" y="1135" type="line"/>
      <point x="1270" y="1161"/>
      <point x="1267" y="1192"/>
      <point x="1267" y="1225" type="curve" smooth="yes"/>
      <point x="1267" y="1502"/>
      <point x="1400" y="1663"/>
      <point x="1678" y="1663" type="curve" smooth="yes"/>
      <point x="1968" y="1663"/>
      <point x="2083" y="1499"/>
      <point x="2083" y="1172" type="curve" smooth="yes"/>
      <point x="2083" y="0" type="line"/>
      <point x="2119" y="0" type="line"/>
      <point x="2119" y="1178" type="line" smooth="yes"/>
      <point x="2119" y="1523"/>
      <point x="1984" y="1698"/>
      <point x="1678" y="1698" type="curve" smooth="yes"/>
      <point x="1377" y="1698"/>
      <point x="1231" y="1523"/>
      <point x="1231" y="1228" type="curve" smooth="yes"/>
      <point x="1231" y="1186"/>
      <point x="1234" y="1147"/>
      <point x="1239" y="1108" type="curve"/>
      <point x="1261" y="1113"/>
      <point x="1293" y="1116"/>
      <point x="1321" y="1116" type="curve" smooth="yes"/>
      <point x="1576" y="1116"/>
      <point x="1648" y="955"/>
      <point x="1648" y="693" type="curve" smooth="yes"/>
      <point x="1648" y="404" type="line" smooth="yes"/>
      <point x="1648" y="150"/>
      <point x="1568" y="15"/>
      <point x="1377" y="15" type="curve" smooth="yes"/>
      <point x="1185" y="15"/>
      <point x="1099" y="136"/>
      <point x="1099" y="385" type="curve" smooth="yes"/>
      <point x="1099" y="617" type="line" smooth="yes"/>
      <point x="1099" y="958"/>
      <point x="973" y="1150"/>
    </contour>
  </outline>
</glyph>
<glyph name="MaMatraU.tm" format="2">
  <advance width="2197"/>
  <note>
MaMatraU.tm
</note>
  <anchor x="1383" y="1245" name="top"/>
  <outline>
    <contour>
      <point x="297" y="1131" type="line"/>
      <point x="241" y="958"/>
      <point x="185" y="664"/>
      <point x="185" y="307" type="curve" smooth="yes"/>
      <point x="185" y="-191"/>
      <point x="382" y="-499"/>
      <point x="839" y="-499" type="curve" smooth="yes"/>
      <point x="844" y="-499" type="line" smooth="yes"/>
      <point x="1235" y="-499"/>
      <point x="1414" y="-321"/>
      <point x="1424" y="6" type="curve"/>
      <point x="1424" y="27" type="line"/>
      <point x="1388" y="27" type="line"/>
      <point x="1388" y="7" type="line"/>
      <point x="1378" y="-306"/>
      <point x="1208" y="-465"/>
      <point x="844" y="-465" type="curve" smooth="yes"/>
      <point x="839" y="-465" type="line" smooth="yes"/>
      <point x="406" y="-465"/>
      <point x="222" y="-173"/>
      <point x="222" y="307" type="curve" smooth="yes"/>
      <point x="222" y="652"/>
      <point x="272" y="942"/>
      <point x="334" y="1131" type="curve"/>
    </contour>
    <component base="Ma.tm" xOffset="590"/>
  </outline>
</glyph>
<glyph name="MatraEe_Fused.tm" format="2">
  <advance width="1223"/>
  <note>
MatraEe.tm
</note>
  <outline>
    <contour>
      <point x="703" y="1415" type="curve" smooth="yes"/>
      <point x="345" y="1415"/>
      <point x="175" y="1207"/>
      <point x="175" y="822" type="curve" smooth="yes"/>
      <point x="175" y="572" type="line"/>
      <point x="175" y="188"/>
      <point x="345" y="-20"/>
      <point x="703" y="-20" type="curve" smooth="yes"/>
      <point x="957" y="-20"/>
      <point x="1068" y="112"/>
      <point x="1068" y="337" type="curve" smooth="yes"/>
      <point x="1068" y="417" type="line" smooth="yes"/>
      <point x="1068" y="596"/>
      <point x="989" y="700"/>
      <point x="824" y="701" type="curve"/>
      <point x="799" y="701" type="line"/>
      <point x="641" y="700"/>
      <point x="548" y="589"/>
      <point x="548" y="400" type="curve" smooth="yes"/>
      <point x="548" y="294" type="line" smooth="yes"/>
      <point x="548" y="155"/>
      <point x="608" y="60"/>
      <point x="695" y="13" type="curve"/>
      <point x="695" y="6" type="line"/>
      <point x="748" y="6" type="line"/>
      <point x="644" y="61"/>
      <point x="583" y="156"/>
      <point x="583" y="293" type="curve" smooth="yes"/>
      <point x="583" y="399" type="line" smooth="yes"/>
      <point x="583" y="586"/>
      <point x="674" y="674"/>
      <point x="814" y="674" type="curve" smooth="yes"/>
      <point x="964" y="674"/>
      <point x="1032" y="584"/>
      <point x="1032" y="415" type="curve" smooth="yes"/>
      <point x="1032" y="338" type="line" smooth="yes"/>
      <point x="1032" y="133"/>
      <point x="934" y="13"/>
      <point x="705" y="13" type="curve" smooth="yes"/>
      <point x="703" y="13"/>
      <point x="698" y="13"/>
      <point x="695" y="13" type="curve"/>
      <point x="695" y="13" type="line"/>
      <point x="375" y="19"/>
      <point x="212" y="208"/>
      <point x="212" y="575" type="curve"/>
      <point x="212" y="819" type="line" smooth="yes"/>
      <point x="212" y="1187"/>
      <point x="375" y="1376"/>
      <point x="695" y="1381" type="curve"/>
      <point x="695" y="1381" type="line"/>
      <point x="698" y="1382"/>
      <point x="703" y="1382"/>
      <point x="705" y="1382" type="curve" smooth="yes"/>
      <point x="931" y="1382"/>
      <point x="1028" y="1262"/>
      <point x="1028" y="1058" type="curve" smooth="yes"/>
      <point x="1028" y="979" type="line" smooth="yes"/>
      <point x="1028" y="810"/>
      <point x="961" y="722"/>
      <point x="814" y="722" type="curve" smooth="yes"/>
      <point x="676" y="722"/>
      <point x="587" y="808"/>
      <point x="587" y="995" type="curve" smooth="yes"/>
      <point x="587" y="1104" type="line" smooth="yes"/>
      <point x="587" y="1240"/>
      <point x="647" y="1334"/>
      <point x="748" y="1389" type="curve"/>
      <point x="695" y="1389" type="line"/>
      <point x="695" y="1381" type="line"/>
      <point x="610" y="1335"/>
      <point x="552" y="1240"/>
      <point x="552" y="1103" type="curve" smooth="yes"/>
      <point x="552" y="994" type="line" smooth="yes"/>
      <point x="552" y="804"/>
      <point x="641" y="697"/>
      <point x="799" y="694" type="curve"/>
      <point x="824" y="694" type="line"/>
      <point x="989" y="697"/>
      <point x="1064" y="800"/>
      <point x="1064" y="977" type="curve" smooth="yes"/>
      <point x="1064" y="1059" type="line" smooth="yes"/>
      <point x="1064" y="1283"/>
      <point x="954" y="1415"/>
    </contour>
  </outline>
</glyph>
<glyph name="MatraIDflt_Fly.tm" format="2">
  <note>
MatraIDflt.tm
</note>
  <outline>
    <contour>
      <point x="505" y="1517" type="line"/>
      <point x="232" y="1517" type="line" smooth="yes"/>
      <point x="66" y="1517"/>
      <point x="3" y="1459"/>
      <point x="3" y="1346" type="curve" smooth="yes"/>
      <point x="3" y="1269"/>
      <point x="44" y="1188"/>
      <point x="75" y="1129" type="curve"/>
      <point x="114" y="1129" type="line"/>
      <point x="79" y="1194"/>
      <point x="40" y="1269"/>
      <point x="40" y="1342" type="curve" smooth="yes"/>
      <point x="40" y="1438"/>
      <point x="92" y="1483"/>
      <point x="238" y="1483" type="curve" smooth="yes"/>
      <point x="515" y="1483" type="line"/>
    </contour>
  </outline>
</glyph>
<glyph name="NaMatraU.tm" format="2">
  <advance width="2037"/>
  <note>
NaMatraU.tm
</note>
  <outline>
    <contour>
      <point x="779" y="1111" type="line"/>
      <point x="779" y="0" type="line"/>
      <point x="815" y="0" type="line"/>
      <point x="815" y="1111" type="line"/>
    </contour>
    <contour>
      <point x="1099" y="734" type="curve" smooth="yes"/>
      <point x="955" y="734"/>
      <point x="849" y="645"/>
      <point x="815" y="524" type="curve"/>
      <point x="802" y="524" type="line"/>
      <point x="802" y="431" type="line"/>
      <point x="809" y="431" type="line"/>
      <point x="846" y="603"/>
      <point x="955" y="699"/>
      <point x="1096" y="699" type="curve" smooth="yes"/>
      <point x="1295" y="699"/>
      <point x="1355" y="562"/>
      <point x="1355" y="296" type="curve" smooth="yes"/>
      <point x="1355" y="194" type="line" smooth="yes"/>
      <point x="1355" y="-7"/>
      <point x="1339" y="-194"/>
      <point x="1318" y="-281" type="curve"/>
      <point x="1317" y="-287" type="line"/>
      <point x="1263" y="-482"/>
      <point x="1092" y="-631"/>
      <point x="717" y="-631" type="curve" smooth="yes"/>
      <point x="297" y="-631"/>
      <point x="136" y="-470"/>
      <point x="98" y="-300" type="curve"/>
      <point x="1832" y="-300" type="line"/>
      <point x="1832" y="-268" type="line"/>
      <point x="53" y="-268" type="line"/>
      <point x="91" y="-498"/>
      <point x="280" y="-665"/>
      <point x="717" y="-665" type="curve" smooth="yes"/>
      <point x="1109" y="-665"/>
      <point x="1299" y="-505"/>
      <point x="1355" y="-289" type="curve"/>
      <point x="1356" y="-284" type="line"/>
      <point x="1376" y="-195"/>
      <point x="1391" y="-9"/>
      <point x="1391" y="193" type="curve" smooth="yes"/>
      <point x="1391" y="299" type="line" smooth="yes"/>
      <point x="1391" y="587"/>
      <point x="1313" y="734"/>
    </contour>
    <contour>
      <point x="1796" y="1131" type="line"/>
      <point x="1796" y="-292" type="line"/>
      <point x="1832" y="-292" type="line"/>
      <point x="1832" y="1131" type="line"/>
    </contour>
    <contour>
      <point x="984" y="1131" type="line"/>
      <point x="205" y="1131" type="line"/>
      <point x="205" y="0" type="line"/>
      <point x="241" y="0" type="line"/>
      <point x="241" y="1098" type="line"/>
      <point x="984" y="1098" type="line"/>
    </contour>
    <component base="RaBeak_Nonexporting" xOffset="789"/>
  </outline>
</glyph>
<glyph name="NgaMatraI_SimpleI.tm" format="2">
  <advance width="2454"/>
  <note>
NgaMatraI.tm
</note>
  <outline>
    <contour>
      <point x="791" y="1111" type="line"/>
      <point x="791" y="0" type="line"/>
      <point x="827" y="0" type="line"/>
      <point x="827" y="1111" type="line"/>
    </contour>
    <contour>
      <point x="1108" y="769" type="curve" smooth="yes"/>
      <point x="964" y="769"/>
      <point x="864" y="678"/>
      <point x="827" y="563" type="curve"/>
      <point x="821" y="563" type="line"/>
      <point x="821" y="499" type="line"/>
      <point x="824" y="499" type="line"/>
      <point x="869" y="647"/>
      <point x="966" y="734"/>
      <point x="1105" y="734" type="curve" smooth="yes"/>
      <point x="1261" y="734"/>
      <point x="1331" y="637"/>
      <point x="1331" y="462" type="curve" smooth="yes"/>
      <point x="1331" y="376" type="line" smooth="yes"/>
      <point x="1331" y="198"/>
      <point x="1291" y="102"/>
      <point x="1195" y="8" type="curve"/>
      <point x="1195" y="0" type="line"/>
      <point x="1755" y="0" type="line"/>
      <point x="1755" y="33" type="line"/>
      <point x="1238" y="33" type="line"/>
      <point x="1243" y="14" type="line"/>
      <point x="1322" y="92"/>
      <point x="1368" y="192"/>
      <point x="1368" y="375" type="curve" smooth="yes"/>
      <point x="1368" y="463" type="line" smooth="yes"/>
      <point x="1368" y="661"/>
      <point x="1282" y="769"/>
    </contour>
    <contour>
      <point x="1735" y="1131" type="line"/>
      <point x="1735" y="0" type="line"/>
      <point x="1771" y="0" type="line"/>
      <point x="1771" y="1131" type="line"/>
    </contour>
    <contour>
      <point x="1123" y="1131" type="line"/>
      <point x="205" y="1131" type="line"/>
      <point x="205" y="0" type="line"/>
      <point x="241" y="0" type="line"/>
      <point x="241" y="1098" type="line"/>
      <point x="1123" y="1098" type="line"/>
    </contour>
    <contour>
      <point x="1863" y="1698" type="curve" smooth="yes"/>
      <point x="1618" y="1698"/>
      <point x="1483" y="1576"/>
      <point x="1483" y="1378" type="curve" smooth="yes"/>
      <point x="1483" y="1376" type="line" smooth="yes"/>
      <point x="1483" y="1185"/>
      <point x="1597" y="1099"/>
      <point x="1751" y="1098" type="curve"/>
      <point x="1759" y="1131" type="line"/>
      <point x="1619" y="1131"/>
      <point x="1520" y="1205"/>
      <point x="1520" y="1376" type="curve" smooth="yes"/>
      <point x="1520" y="1378" type="line" smooth="yes"/>
      <point x="1520" y="1556"/>
      <point x="1637" y="1664"/>
      <point x="1863" y="1664" type="curve" smooth="yes"/>
      <point x="2112" y="1664"/>
      <point x="2213" y="1542"/>
      <point x="2213" y="1277" type="curve" smooth="yes"/>
      <point x="2213" y="0" type="line"/>
      <point x="2249" y="0" type="line"/>
      <point x="2249" y="1280" type="line" smooth="yes"/>
      <point x="2249" y="1565"/>
      <point x="2130" y="1698"/>
    </contour>
    <component base="RaBeak_Nonexporting" xOffset="851"/>
  </outline>
</glyph>
<glyph name="NgaMatraIi_SimpleIi.tm" format="2">
  <advance width="1976"/>
  <note>
NgaMatraIi.tm
</note>
  <outline>
    <contour>
      <point x="791" y="1111" type="line"/>
      <point x="791" y="0" type="line"/>
      <point x="827" y="0" type="line"/>
      <point x="827" y="1111" type="line"/>
    </contour>
    <contour>
      <point x="1735" y="1131" type="line"/>
      <point x="1735" y="0" type="line"/>
      <point x="1771" y="0" type="line"/>
      <point x="1771" y="1131" type="line"/>
    </contour>
    <contour>
      <point x="1722" y="1786" type="curve" smooth="yes"/>
      <point x="1554" y="1786"/>
      <point x="1453" y="1688"/>
      <point x="1453" y="1490" type="curve" smooth="yes"/>
      <point x="1453" y="1434" type="line" smooth="yes"/>
      <point x="1453" y="1188"/>
      <point x="1570" y="1099"/>
      <point x="1740" y="1099" type="curve"/>
      <point x="1749" y="1099" type="line"/>
      <point x="1749" y="1131" type="line"/>
      <point x="1744" y="1131" type="line"/>
      <point x="1590" y="1131"/>
      <point x="1488" y="1206"/>
      <point x="1488" y="1426" type="curve" smooth="yes"/>
      <point x="1488" y="1451" type="line"/>
      <point x="1489" y="1494" type="line" smooth="yes"/>
      <point x="1493" y="1669"/>
      <point x="1576" y="1753"/>
      <point x="1722" y="1753" type="curve" smooth="yes"/>
      <point x="1859" y="1753"/>
      <point x="1933" y="1686"/>
      <point x="1933" y="1558" type="curve" smooth="yes"/>
      <point x="1933" y="1543" type="line" smooth="yes"/>
      <point x="1933" y="1416"/>
      <point x="1868" y="1350"/>
      <point x="1727" y="1350" type="curve" smooth="yes"/>
      <point x="1603" y="1350"/>
      <point x="1517" y="1402"/>
      <point x="1485" y="1471" type="curve"/>
      <point x="1482" y="1471" type="line"/>
      <point x="1482" y="1439" type="line"/>
      <point x="1488" y="1439" type="line"/>
      <point x="1516" y="1395" type="line"/>
      <point x="1545" y="1359"/>
      <point x="1622" y="1317"/>
      <point x="1731" y="1317" type="curve" smooth="yes"/>
      <point x="1899" y="1317"/>
      <point x="1969" y="1404"/>
      <point x="1969" y="1542" type="curve" smooth="yes"/>
      <point x="1969" y="1559" type="line" smooth="yes"/>
      <point x="1969" y="1705"/>
      <point x="1881" y="1786"/>
    </contour>
    <contour>
      <point x="1123" y="1131" type="line"/>
      <point x="205" y="1131" type="line"/>
      <point x="205" y="0" type="line"/>
      <point x="241" y="0" type="line"/>
      <point x="241" y="1098" type="line"/>
      <point x="1123" y="1098" type="line"/>
    </contour>
    <contour>
      <point x="1108" y="734" type="curve" smooth="yes"/>
      <point x="964" y="734"/>
      <point x="864" y="643"/>
      <point x="827" y="528" type="curve"/>
      <point x="821" y="528" type="line"/>
      <point x="821" y="464" type="line"/>
      <point x="824" y="464" type="line"/>
      <point x="869" y="612"/>
      <point x="966" y="699"/>
      <point x="1105" y="699" type="curve" smooth="yes"/>
      <point x="1261" y="699"/>
      <point x="1331" y="602"/>
      <point x="1331" y="427" type="curve" smooth="yes"/>
      <point x="1331" y="376" type="line" smooth="yes"/>
      <point x="1331" y="198"/>
      <point x="1291" y="102"/>
      <point x="1195" y="8" type="curve"/>
      <point x="1195" y="0" type="line"/>
      <point x="1755" y="0" type="line"/>
      <point x="1755" y="33" type="line"/>
      <point x="1238" y="33" type="line"/>
      <point x="1243" y="14" type="line"/>
      <point x="1322" y="92"/>
      <point x="1368" y="192"/>
      <point x="1368" y="375" type="curve" smooth="yes"/>
      <point x="1368" y="428" type="line" smooth="yes"/>
      <point x="1368" y="626"/>
      <point x="1282" y="734"/>
    </contour>
    <component base="RaBeak_Nonexporting" xOffset="864"/>
  </outline>
</glyph>
<glyph name="NgaMatraUu.tm" format="2">
  <advance width="2286"/>
  <note>
NgaMatraUu.tm
</note>
  <anchor x="1068" y="1245" name="top"/>
  <outline>
    <contour>
      <point x="1735" y="185" type="line"/>
      <point x="1735" y="-313" type="line"/>
      <point x="1771" y="-313" type="line"/>
      <point x="1771" y="185" type="line"/>
    </contour>
    <contour>
      <point x="2008" y="243" type="curve" smooth="yes"/>
      <point x="1881" y="243"/>
      <point x="1800" y="161"/>
      <point x="1771" y="68" type="curve"/>
      <point x="1760" y="68" type="line"/>
      <point x="1760" y="-24" type="line"/>
      <point x="1765" y="-24" type="line"/>
      <point x="1795" y="122"/>
      <point x="1879" y="209"/>
      <point x="2007" y="209" type="curve" smooth="yes"/>
      <point x="2162" y="209"/>
      <point x="2216" y="115"/>
      <point x="2216" y="-55" type="curve" smooth="yes"/>
      <point x="2216" y="-74" type="line" smooth="yes"/>
      <point x="2216" y="-473"/>
      <point x="1910" y="-689"/>
      <point x="1177" y="-689" type="curve" smooth="yes"/>
      <point x="536" y="-689"/>
      <point x="153" y="-547"/>
      <point x="153" y="-336" type="curve" smooth="yes"/>
      <point x="153" y="-220"/>
      <point x="261" y="-180"/>
      <point x="414" y="-180" type="curve" smooth="yes"/>
      <point x="632" y="-180"/>
      <point x="814" y="-241"/>
      <point x="946" y="-308" type="curve"/>
      <point x="940" y="-268" type="line"/>
      <point x="824" y="-209"/>
      <point x="641" y="-147"/>
      <point x="411" y="-147" type="curve" smooth="yes"/>
      <point x="235" y="-147"/>
      <point x="117" y="-202"/>
      <point x="117" y="-336" type="curve" smooth="yes"/>
      <point x="117" y="-568"/>
      <point x="505" y="-723"/>
      <point x="1177" y="-723" type="curve" smooth="yes"/>
      <point x="1931" y="-723"/>
      <point x="2253" y="-497"/>
      <point x="2253" y="-74" type="curve" smooth="yes"/>
      <point x="2253" y="-52" type="line" smooth="yes"/>
      <point x="2253" y="137"/>
      <point x="2182" y="243"/>
    </contour>
    <component base="Nga.tm"/>
  </outline>
</glyph>
<glyph name="NgaMatraUu_SimpleUu.tm" format="2">
  <advance width="2284"/>
  <note>
NgaMatraUu.tm
</note>
  <anchor x="1068" y="1245" name="top"/>
  <outline>
    <contour>
      <point x="1735" y="188" type="line"/>
      <point x="1735" y="-331" type="line"/>
      <point x="1771" y="-331" type="line"/>
      <point x="1771" y="188" type="line"/>
    </contour>
    <contour>
      <point x="2007" y="243" type="curve" smooth="yes"/>
      <point x="1881" y="243"/>
      <point x="1800" y="160"/>
      <point x="1771" y="66" type="curve"/>
      <point x="1760" y="66" type="line"/>
      <point x="1760" y="-24" type="line"/>
      <point x="1765" y="-24" type="line"/>
      <point x="1795" y="124"/>
      <point x="1880" y="209"/>
      <point x="2006" y="209" type="curve" smooth="yes"/>
      <point x="2160" y="209"/>
      <point x="2214" y="96"/>
      <point x="2214" y="-103" type="curve" smooth="yes"/>
      <point x="2214" y="-178" type="line" smooth="yes"/>
      <point x="2214" y="-472"/>
      <point x="2093" y="-626"/>
      <point x="1807" y="-626" type="curve" smooth="yes"/>
      <point x="1504" y="-626"/>
      <point x="1379" y="-475"/>
      <point x="1379" y="-199" type="curve"/>
      <point x="1379" y="-121" type="line"/>
      <point x="1343" y="-131" type="line"/>
      <point x="1343" y="-200" type="line" smooth="yes"/>
      <point x="1343" y="-499"/>
      <point x="1481" y="-660"/>
      <point x="1807" y="-660" type="curve" smooth="yes"/>
      <point x="2118" y="-660"/>
      <point x="2251" y="-494"/>
      <point x="2251" y="-178" type="curve" smooth="yes"/>
      <point x="2251" y="-101" type="line" smooth="yes"/>
      <point x="2251" y="121"/>
      <point x="2180" y="243"/>
    </contour>
    <component base="Nga.tm"/>
  </outline>
</glyph>
<glyph name="NnaMatraAa_Simple.tm" format="2">
  <advance width="3737"/>
  <outline>
    <contour>
      <point x="2274" y="1156" type="curve" smooth="yes"/>
      <point x="2079" y="1156"/>
      <point x="1933" y="1128"/>
      <point x="1825" y="1078" type="curve"/>
      <point x="1854" y="1058" type="line"/>
      <point x="1943" y="1096"/>
      <point x="2087" y="1123"/>
      <point x="2274" y="1123" type="curve" smooth="yes"/>
      <point x="2461" y="1123"/>
      <point x="2598" y="1096"/>
      <point x="2684" y="1064" type="curve"/>
      <point x="2692" y="1060" type="line"/>
      <point x="2905" y="965"/>
      <point x="2966" y="772"/>
      <point x="2966" y="525" type="curve" smooth="yes"/>
      <point x="2966" y="376" type="line" smooth="yes"/>
      <point x="2966" y="151"/>
      <point x="2892" y="15"/>
      <point x="2711" y="15" type="curve" smooth="yes"/>
      <point x="2526" y="15"/>
      <point x="2449" y="151"/>
      <point x="2449" y="376" type="curve" smooth="yes"/>
      <point x="2449" y="525" type="line" smooth="yes"/>
      <point x="2449" y="771"/>
      <point x="2514" y="967"/>
      <point x="2728" y="1062" type="curve"/>
      <point x="2692" y="1080" type="line"/>
      <point x="2484" y="982"/>
      <point x="2412" y="783"/>
      <point x="2412" y="527" type="curve" smooth="yes"/>
      <point x="2412" y="375" type="line" smooth="yes"/>
      <point x="2412" y="132"/>
      <point x="2502" y="-20"/>
      <point x="2711" y="-20" type="curve" smooth="yes"/>
      <point x="2915" y="-20"/>
      <point x="3003" y="132"/>
      <point x="3003" y="375" type="curve" smooth="yes"/>
      <point x="3003" y="527" type="line" smooth="yes"/>
      <point x="3003" y="781"/>
      <point x="2934" y="981"/>
      <point x="2738" y="1074" type="curve"/>
      <point x="2737" y="1075" type="line"/>
      <point x="2635" y="1123"/>
      <point x="2483" y="1156"/>
    </contour>
    <contour>
      <point x="3095" y="1156" type="curve" smooth="yes"/>
      <point x="2934" y="1156"/>
      <point x="2797" y="1125"/>
      <point x="2701" y="1082" type="curve"/>
      <point x="2730" y="1061" type="line"/>
      <point x="2806" y="1094"/>
      <point x="2941" y="1123"/>
      <point x="3095" y="1123" type="curve" smooth="yes"/>
      <point x="3395" y="1123"/>
      <point x="3513" y="1008"/>
      <point x="3513" y="818" type="curve" smooth="yes"/>
      <point x="3513" y="815" type="line" smooth="yes"/>
      <point x="3513" y="653"/>
      <point x="3437" y="555"/>
      <point x="3245" y="553" type="curve" smooth="yes"/>
      <point x="3158" y="552" type="line"/>
      <point x="3158" y="521" type="line"/>
      <point x="3240" y="520" type="line" smooth="yes"/>
      <point x="3438" y="518"/>
      <point x="3545" y="423"/>
      <point x="3545" y="215" type="curve" smooth="yes"/>
      <point x="3545" y="205" type="line" smooth="yes"/>
      <point x="3545" y="-309"/>
      <point x="3056" y="-527"/>
      <point x="2040" y="-527" type="curve" smooth="yes"/>
      <point x="1991" y="-527" type="line" smooth="yes"/>
      <point x="805" y="-527"/>
      <point x="233" y="-241"/>
      <point x="233" y="558" type="curve"/>
      <point x="234" y="1131" type="line"/>
      <point x="196" y="1131" type="line"/>
      <point x="196" y="558" type="line"/>
      <point x="196" y="-261"/>
      <point x="782" y="-561"/>
      <point x="1990" y="-561" type="curve" smooth="yes"/>
      <point x="2040" y="-561" type="line" smooth="yes"/>
      <point x="3084" y="-561"/>
      <point x="3582" y="-332"/>
      <point x="3582" y="205" type="curve" smooth="yes"/>
      <point x="3582" y="216" type="line" smooth="yes"/>
      <point x="3582" y="435"/>
      <point x="3466" y="529"/>
      <point x="3308" y="536" type="curve"/>
      <point x="3308" y="537" type="line"/>
      <point x="3461" y="548"/>
      <point x="3549" y="642"/>
      <point x="3549" y="814" type="curve" smooth="yes"/>
      <point x="3549" y="819" type="line"/>
      <point x="3549" y="1034"/>
      <point x="3414" y="1156"/>
    </contour>
    <contour>
      <point x="1422" y="1156" type="curve" smooth="yes"/>
      <point x="952" y="1156"/>
      <point x="696" y="949"/>
      <point x="696" y="548" type="curve" smooth="yes"/>
      <point x="696" y="356" type="line" smooth="yes"/>
      <point x="696" y="119"/>
      <point x="793" y="-20"/>
      <point x="1002" y="-20" type="curve" smooth="yes"/>
      <point x="1192" y="-20"/>
      <point x="1282" y="100"/>
      <point x="1282" y="300" type="curve" smooth="yes"/>
      <point x="1282" y="423" type="line" smooth="yes"/>
      <point x="1282" y="618"/>
      <point x="1193" y="724"/>
      <point x="1017" y="724" type="curve" smooth="yes"/>
      <point x="872" y="724"/>
      <point x="769" y="637"/>
      <point x="732" y="531" type="curve"/>
      <point x="724" y="531" type="line"/>
      <point x="724" y="443" type="line"/>
      <point x="753" y="584"/>
      <point x="860" y="689"/>
      <point x="1013" y="689" type="curve" smooth="yes"/>
      <point x="1171" y="689"/>
      <point x="1246" y="595"/>
      <point x="1246" y="422" type="curve" smooth="yes"/>
      <point x="1246" y="301" type="line" smooth="yes"/>
      <point x="1246" y="119"/>
      <point x="1168" y="14"/>
      <point x="1002" y="14" type="curve" smooth="yes"/>
      <point x="818" y="14"/>
      <point x="733" y="139"/>
      <point x="733" y="345" type="curve"/>
      <point x="733" y="531" type="line"/>
      <point x="732" y="531" type="line"/>
      <point x="732" y="536"/>
      <point x="732" y="542"/>
      <point x="732" y="547" type="curve" smooth="yes"/>
      <point x="732" y="926"/>
      <point x="972" y="1122"/>
      <point x="1422" y="1122" type="curve" smooth="yes"/>
      <point x="1604" y="1122"/>
      <point x="1737" y="1098"/>
      <point x="1819" y="1068" type="curve"/>
      <point x="1829" y="1063" type="line"/>
      <point x="2040" y="968"/>
      <point x="2101" y="774"/>
      <point x="2101" y="525" type="curve" smooth="yes"/>
      <point x="2101" y="376" type="line" smooth="yes"/>
      <point x="2101" y="151"/>
      <point x="2027" y="15"/>
      <point x="1846" y="15" type="curve" smooth="yes"/>
      <point x="1661" y="15"/>
      <point x="1585" y="151"/>
      <point x="1585" y="376" type="curve" smooth="yes"/>
      <point x="1585" y="525" type="line" smooth="yes"/>
      <point x="1585" y="773"/>
      <point x="1650" y="968"/>
      <point x="1863" y="1063" type="curve"/>
      <point x="1827" y="1081" type="line"/>
      <point x="1620" y="984"/>
      <point x="1548" y="784"/>
      <point x="1548" y="527" type="curve" smooth="yes"/>
      <point x="1548" y="375" type="line" smooth="yes"/>
      <point x="1548" y="132"/>
      <point x="1638" y="-20"/>
      <point x="1846" y="-20" type="curve" smooth="yes"/>
      <point x="2051" y="-20"/>
      <point x="2138" y="132"/>
      <point x="2138" y="375" type="curve" smooth="yes"/>
      <point x="2138" y="527" type="line" smooth="yes"/>
      <point x="2138" y="783"/>
      <point x="2068" y="984"/>
      <point x="1874" y="1077" type="curve"/>
      <point x="1873" y="1078" type="line"/>
      <point x="1774" y="1125"/>
      <point x="1625" y="1156"/>
    </contour>
  </outline>
</glyph>
<glyph name="NnnaMatraAa.tm" format="2">
  <advance width="2861"/>
  <outline>
    <contour>
      <point x="2217" y="1156" type="curve" smooth="yes"/>
      <point x="2052" y="1156"/>
      <point x="1920" y="1126"/>
      <point x="1824" y="1084" type="curve"/>
      <point x="1854" y="1063" type="line"/>
      <point x="1930" y="1094"/>
      <point x="2059" y="1123"/>
      <point x="2217" y="1123" type="curve" smooth="yes"/>
      <point x="2519" y="1123"/>
      <point x="2637" y="1008"/>
      <point x="2637" y="818" type="curve" smooth="yes"/>
      <point x="2637" y="815" type="line" smooth="yes"/>
      <point x="2637" y="653"/>
      <point x="2561" y="555"/>
      <point x="2369" y="553" type="curve" smooth="yes"/>
      <point x="2282" y="552" type="line"/>
      <point x="2282" y="521" type="line"/>
      <point x="2364" y="520" type="line" smooth="yes"/>
      <point x="2562" y="518"/>
      <point x="2669" y="420"/>
      <point x="2669" y="205" type="curve" smooth="yes"/>
      <point x="2669" y="198" type="line" smooth="yes"/>
      <point x="2669" y="-263"/>
      <point x="2297" y="-495"/>
      <point x="1576" y="-495" type="curve" smooth="yes"/>
      <point x="1557" y="-495" type="line" smooth="yes"/>
      <point x="668" y="-495"/>
      <point x="222" y="-191"/>
      <point x="222" y="528" type="curve" smooth="yes"/>
      <point x="222" y="754"/>
      <point x="244" y="957"/>
      <point x="295" y="1131" type="curve"/>
      <point x="258" y="1131" type="line"/>
      <point x="211" y="971"/>
      <point x="185" y="755"/>
      <point x="185" y="528" type="curve" smooth="yes"/>
      <point x="185" y="-213"/>
      <point x="643" y="-530"/>
      <point x="1556" y="-530" type="curve" smooth="yes"/>
      <point x="1577" y="-530" type="line" smooth="yes"/>
      <point x="2325" y="-530"/>
      <point x="2706" y="-286"/>
      <point x="2706" y="198" type="curve" smooth="yes"/>
      <point x="2706" y="206" type="line" smooth="yes"/>
      <point x="2706" y="432"/>
      <point x="2590" y="529"/>
      <point x="2432" y="536" type="curve"/>
      <point x="2432" y="537" type="line"/>
      <point x="2585" y="548"/>
      <point x="2673" y="642"/>
      <point x="2673" y="814" type="curve" smooth="yes"/>
      <point x="2673" y="819" type="line" smooth="yes"/>
      <point x="2673" y="1034"/>
      <point x="2538" y="1156"/>
    </contour>
    <contour>
      <point x="1411" y="1156" type="curve" smooth="yes"/>
      <point x="941" y="1156"/>
      <point x="685" y="949"/>
      <point x="685" y="548" type="curve" smooth="yes"/>
      <point x="685" y="356" type="line" smooth="yes"/>
      <point x="685" y="119"/>
      <point x="782" y="-20"/>
      <point x="991" y="-20" type="curve" smooth="yes"/>
      <point x="1181" y="-20"/>
      <point x="1271" y="100"/>
      <point x="1271" y="300" type="curve" smooth="yes"/>
      <point x="1271" y="423" type="line" smooth="yes"/>
      <point x="1271" y="618"/>
      <point x="1182" y="724"/>
      <point x="1006" y="724" type="curve" smooth="yes"/>
      <point x="861" y="724"/>
      <point x="758" y="637"/>
      <point x="721" y="531" type="curve"/>
      <point x="713" y="531" type="line"/>
      <point x="713" y="443" type="line"/>
      <point x="742" y="584"/>
      <point x="849" y="689"/>
      <point x="1002" y="689" type="curve" smooth="yes"/>
      <point x="1160" y="689"/>
      <point x="1235" y="595"/>
      <point x="1235" y="422" type="curve" smooth="yes"/>
      <point x="1235" y="301" type="line" smooth="yes"/>
      <point x="1235" y="119"/>
      <point x="1157" y="14"/>
      <point x="991" y="14" type="curve" smooth="yes"/>
      <point x="807" y="14"/>
      <point x="722" y="139"/>
      <point x="722" y="345" type="curve"/>
      <point x="722" y="531" type="line"/>
      <point x="721" y="531" type="line"/>
      <point x="721" y="536"/>
      <point x="721" y="542"/>
      <point x="721" y="547" type="curve" smooth="yes"/>
      <point x="721" y="926"/>
      <point x="961" y="1122"/>
      <point x="1411" y="1122" type="curve" smooth="yes"/>
      <point x="1593" y="1122"/>
      <point x="1725" y="1097"/>
      <point x="1808" y="1066" type="curve"/>
      <point x="1817" y="1061" type="line"/>
      <point x="2030" y="968"/>
      <point x="2090" y="775"/>
      <point x="2090" y="525" type="curve" smooth="yes"/>
      <point x="2090" y="376" type="line" smooth="yes"/>
      <point x="2090" y="151"/>
      <point x="2016" y="15"/>
      <point x="1835" y="15" type="curve" smooth="yes"/>
      <point x="1650" y="15"/>
      <point x="1574" y="151"/>
      <point x="1574" y="376" type="curve" smooth="yes"/>
      <point x="1574" y="525" type="line" smooth="yes"/>
      <point x="1574" y="774"/>
      <point x="1639" y="968"/>
      <point x="1851" y="1061" type="curve"/>
      <point x="1816" y="1080" type="line"/>
      <point x="1609" y="984"/>
      <point x="1537" y="785"/>
      <point x="1537" y="527" type="curve" smooth="yes"/>
      <point x="1537" y="375" type="line" smooth="yes"/>
      <point x="1537" y="132"/>
      <point x="1627" y="-20"/>
      <point x="1835" y="-20" type="curve" smooth="yes"/>
      <point x="2040" y="-20"/>
      <point x="2127" y="132"/>
      <point x="2127" y="375" type="curve" smooth="yes"/>
      <point x="2127" y="527" type="line" smooth="yes"/>
      <point x="2127" y="784"/>
      <point x="2058" y="984"/>
      <point x="1862" y="1075" type="curve"/>
      <point x="1861" y="1076" type="line"/>
      <point x="1762" y="1124"/>
      <point x="1614" y="1156"/>
    </contour>
  </outline>
</glyph>
<glyph name="NumberSign_Simple.tm" format="2">
  <advance width="1540"/>
  <note>
NumberSign.tm
</note>
  <anchor x="788" y="1245" name="top"/>
  <outline>
    <contour>
      <point x="1384" y="1864" type="curve" smooth="yes"/>
      <point x="1221" y="1864"/>
      <point x="1128" y="1763"/>
      <point x="1128" y="1563" type="curve" smooth="yes"/>
      <point x="1128" y="1515" type="line"/>
      <point x="1126" y="1515" type="line"/>
      <point x="1117" y="1644"/>
      <point x="1051" y="1724"/>
      <point x="917" y="1724" type="curve" smooth="yes"/>
      <point x="768" y="1724"/>
      <point x="688" y="1618"/>
      <point x="688" y="1439" type="curve"/>
      <point x="688" y="1418" type="line" smooth="yes"/>
      <point x="688" y="1289"/>
      <point x="727" y="1184"/>
      <point x="772" y="1129" type="curve"/>
      <point x="813" y="1129" type="line"/>
      <point x="759" y="1193"/>
      <point x="724" y="1291"/>
      <point x="724" y="1418" type="curve" smooth="yes"/>
      <point x="724" y="1437" type="line"/>
      <point x="724" y="1596"/>
      <point x="788" y="1689"/>
      <point x="918" y="1689" type="curve" smooth="yes"/>
      <point x="1052" y="1689"/>
      <point x="1115" y="1609"/>
      <point x="1115" y="1413" type="curve" smooth="yes"/>
      <point x="1115" y="1330" type="line"/>
      <point x="1150" y="1330" type="line"/>
      <point x="1150" y="1539" type="line" smooth="yes"/>
      <point x="1150" y="1742"/>
      <point x="1239" y="1831"/>
      <point x="1384" y="1831" type="curve" smooth="yes"/>
      <point x="1520" y="1831"/>
      <point x="1584" y="1742"/>
      <point x="1584" y="1600" type="curve" smooth="yes"/>
      <point x="1584" y="1582" type="line" smooth="yes"/>
      <point x="1584" y="1412"/>
      <point x="1544" y="1330"/>
      <point x="1450" y="1242" type="curve"/>
      <point x="1450" y="1234" type="line"/>
      <point x="1974" y="1234" type="line"/>
      <point x="1979" y="1266" type="line"/>
      <point x="1496" y="1266" type="line"/>
      <point x="1498" y="1248" type="line"/>
      <point x="1577" y="1321"/>
      <point x="1620" y="1410"/>
      <point x="1620" y="1581" type="curve" smooth="yes"/>
      <point x="1620" y="1600" type="line" smooth="yes"/>
      <point x="1620" y="1764"/>
      <point x="1540" y="1864"/>
    </contour>
    <component base="Na_Simple.tm"/>
  </outline>
</glyph>
<glyph name="NyaMatraI.tm" format="2">
  <advance width="2391"/>
  <note>
NyaMatraI.tm
</note>
  <outline>
    <contour>
      <point x="1609" y="1111" type="line"/>
      <point x="1609" y="0" type="line"/>
      <point x="1645" y="0" type="line"/>
      <point x="1645" y="1111" type="line"/>
    </contour>
    <contour>
      <point x="1935" y="734" type="curve" smooth="yes"/>
      <point x="1778" y="734"/>
      <point x="1680" y="645"/>
      <point x="1645" y="524" type="curve"/>
      <point x="1632" y="524" type="line"/>
      <point x="1632" y="431" type="line"/>
      <point x="1639" y="431" type="line"/>
      <point x="1676" y="602"/>
      <point x="1777" y="699"/>
      <point x="1931" y="699" type="curve" smooth="yes"/>
      <point x="2118" y="699"/>
      <point x="2184" y="576"/>
      <point x="2184" y="350" type="curve" smooth="yes"/>
      <point x="2184" y="320" type="line" smooth="yes"/>
      <point x="2184" y="-221"/>
      <point x="1892" y="-468"/>
      <point x="1264" y="-468" type="curve" smooth="yes"/>
      <point x="1262" y="-468" type="line" smooth="yes"/>
      <point x="578" y="-468"/>
      <point x="222" y="-172"/>
      <point x="222" y="507" type="curve" smooth="yes"/>
      <point x="222" y="752"/>
      <point x="244" y="951"/>
      <point x="293" y="1131" type="curve"/>
      <point x="256" y="1131" type="line"/>
      <point x="211" y="966"/>
      <point x="185" y="751"/>
      <point x="185" y="505" type="curve" smooth="yes"/>
      <point x="185" y="-191"/>
      <point x="556" y="-502"/>
      <point x="1262" y="-502" type="curve" smooth="yes"/>
      <point x="1264" y="-502" type="line" smooth="yes"/>
      <point x="1918" y="-502"/>
      <point x="2221" y="-237"/>
      <point x="2221" y="318" type="curve" smooth="yes"/>
      <point x="2221" y="353" type="line" smooth="yes"/>
      <point x="2221" y="601"/>
      <point x="2138" y="734"/>
    </contour>
    <contour>
      <point x="1822" y="1131" type="line"/>
      <point x="1321" y="1131" type="line"/>
      <point x="1321" y="1098" type="line"/>
      <point x="1822" y="1098" type="line"/>
    </contour>
    <contour>
      <point x="1869" y="1698" type="curve" smooth="yes"/>
      <point x="1655" y="1698"/>
      <point x="1545" y="1576"/>
      <point x="1545" y="1355" type="curve"/>
      <point x="1545" y="1350" type="line" smooth="yes"/>
      <point x="1545" y="1256"/>
      <point x="1573" y="1175"/>
      <point x="1604" y="1129" type="curve"/>
      <point x="1642" y="1129" type="line"/>
      <point x="1605" y="1184"/>
      <point x="1582" y="1254"/>
      <point x="1582" y="1350" type="curve" smooth="yes"/>
      <point x="1582" y="1352" type="line"/>
      <point x="1582" y="1556"/>
      <point x="1676" y="1663"/>
      <point x="1869" y="1663" type="curve" smooth="yes"/>
      <point x="2072" y="1663"/>
      <point x="2153" y="1553"/>
      <point x="2153" y="1312" type="curve" smooth="yes"/>
      <point x="2153" y="814" type="line"/>
      <point x="2189" y="814" type="line"/>
      <point x="2189" y="1317" type="line" smooth="yes"/>
      <point x="2189" y="1574"/>
      <point x="2090" y="1698"/>
    </contour>
    <component base="VowelE_NonExporting" xOffset="536"/>
    <component base="RaBeak_Nonexporting" xOffset="1510"/>
  </outline>
</glyph>
<glyph name="NyaMatraU_Simple.tm" format="2">
  <advance width="2310"/>
  <note>
NyaMatraU.tm
</note>
  <outline>
    <contour>
      <point x="1095" y="1111" type="line"/>
      <point x="1095" y="0" type="line"/>
      <point x="1131" y="0" type="line"/>
      <point x="1131" y="1111" type="line"/>
    </contour>
    <contour>
      <point x="1414" y="734" type="curve" smooth="yes"/>
      <point x="1261" y="734"/>
      <point x="1163" y="646"/>
      <point x="1131" y="529" type="curve"/>
      <point x="1118" y="529" type="line"/>
      <point x="1118" y="436" type="line"/>
      <point x="1124" y="436" type="line"/>
      <point x="1160" y="604"/>
      <point x="1260" y="699"/>
      <point x="1411" y="699" type="curve" smooth="yes"/>
      <point x="1597" y="699"/>
      <point x="1665" y="576"/>
      <point x="1665" y="344" type="curve" smooth="yes"/>
      <point x="1665" y="266" type="line" smooth="yes"/>
      <point x="1665" y="-155"/>
      <point x="1512" y="-285"/>
      <point x="1035" y="-285" type="curve" smooth="yes"/>
      <point x="120" y="-285" type="line"/>
      <point x="130" y="-318" type="line"/>
      <point x="2105" y="-318" type="line"/>
      <point x="2105" y="-285" type="line"/>
      <point x="1352" y="-285" type="line"/>
      <point x="1352" y="-283" type="line"/>
      <point x="1615" y="-229"/>
      <point x="1702" y="-52"/>
      <point x="1702" y="264" type="curve" smooth="yes"/>
      <point x="1702" y="347" type="line" smooth="yes"/>
      <point x="1702" y="601"/>
      <point x="1617" y="734"/>
    </contour>
    <contour>
      <point x="2069" y="1131" type="line"/>
      <point x="2069" y="-310" type="line"/>
      <point x="2105" y="-310" type="line"/>
      <point x="2105" y="1131" type="line"/>
    </contour>
    <contour>
      <point x="1309" y="1131" type="line"/>
      <point x="816" y="1131" type="line"/>
      <point x="816" y="1099" type="line"/>
      <point x="1309" y="1099" type="line"/>
    </contour>
    <component base="VowelE_NonExporting" xOffset="31"/>
    <component base="RaBeak_Nonexporting" xOffset="1097"/>
  </outline>
</glyph>
<glyph name="PaMatraI_Fly.tm" format="2">
  <advance width="1436"/>
  <outline>
    <contour>
      <point x="1195" y="1131" type="line"/>
      <point x="1195" y="34" type="line"/>
      <point x="819" y="34" type="line"/>
      <point x="819" y="0" type="line"/>
      <point x="1231" y="0" type="line"/>
      <point x="1231" y="1131" type="line"/>
    </contour>
    <contour>
      <point x="241" y="1131" type="line"/>
      <point x="205" y="1131" type="line"/>
      <point x="205" y="0" type="line"/>
      <point x="977" y="0" type="line"/>
      <point x="977" y="34" type="line"/>
      <point x="241" y="34" type="line"/>
    </contour>
    <contour>
      <point x="1378" y="1517" type="line"/>
      <point x="1083" y="1517" type="line" smooth="yes"/>
      <point x="904" y="1517"/>
      <point x="835" y="1454"/>
      <point x="835" y="1327" type="curve" smooth="yes"/>
      <point x="835" y="1224"/>
      <point x="886" y="1086"/>
      <point x="917" y="1021" type="curve" smooth="yes"/>
      <point x="955" y="934"/>
      <point x="996" y="908"/>
      <point x="1100" y="908" type="curve" smooth="yes"/>
      <point x="1196" y="908" type="line"/>
      <point x="1196" y="940" type="line"/>
      <point x="1098" y="940" type="line" smooth="yes"/>
      <point x="1014" y="940"/>
      <point x="983" y="959"/>
      <point x="949" y="1036" type="curve" smooth="yes"/>
      <point x="920" y="1096"/>
      <point x="871" y="1231"/>
      <point x="871" y="1326" type="curve" smooth="yes"/>
      <point x="871" y="1435"/>
      <point x="929" y="1483"/>
      <point x="1088" y="1483" type="curve" smooth="yes"/>
      <point x="1388" y="1483" type="line"/>
    </contour>
  </outline>
</glyph>
<glyph name="PaMatraU.tm" format="2">
  <advance width="1426"/>
  <note>
PaMatraU.tm
</note>
  <anchor x="663" y="1245" name="top"/>
  <outline>
    <contour>
      <point x="1185" y="174" type="line"/>
      <point x="1185" y="-353" type="line"/>
      <point x="1221" y="-353" type="line"/>
      <point x="1221" y="174" type="line"/>
    </contour>
    <component base="Pa.tm"/>
  </outline>
</glyph>
<glyph name="PaMatraUu.tm" format="2">
  <advance width="1734"/>
  <note>
PaMatraUu.tm
</note>
  <anchor x="663" y="1245" name="top"/>
  <outline>
    <contour>
      <point x="1185" y="185" type="line"/>
      <point x="1185" y="-313" type="line"/>
      <point x="1221" y="-313" type="line"/>
      <point x="1221" y="185" type="line"/>
    </contour>
    <contour>
      <point x="1457" y="243" type="curve" smooth="yes"/>
      <point x="1330" y="243"/>
      <point x="1249" y="161"/>
      <point x="1221" y="68" type="curve"/>
      <point x="1209" y="68" type="line"/>
      <point x="1209" y="-24" type="line"/>
      <point x="1214" y="-24" type="line"/>
      <point x="1245" y="124"/>
      <point x="1329" y="209"/>
      <point x="1456" y="209" type="curve" smooth="yes"/>
      <point x="1611" y="209"/>
      <point x="1665" y="109"/>
      <point x="1665" y="-67" type="curve" smooth="yes"/>
      <point x="1665" y="-94" type="line" smooth="yes"/>
      <point x="1665" y="-469"/>
      <point x="1413" y="-666"/>
      <point x="896" y="-666" type="curve" smooth="yes"/>
      <point x="433" y="-666"/>
      <point x="153" y="-524"/>
      <point x="153" y="-331" type="curve" smooth="yes"/>
      <point x="153" y="-222"/>
      <point x="249" y="-183"/>
      <point x="373" y="-183" type="curve" smooth="yes"/>
      <point x="507" y="-183"/>
      <point x="631" y="-220"/>
      <point x="712" y="-256" type="curve"/>
      <point x="704" y="-216" type="line"/>
      <point x="635" y="-186"/>
      <point x="517" y="-150"/>
      <point x="372" y="-150" type="curve" smooth="yes"/>
      <point x="222" y="-150"/>
      <point x="117" y="-206"/>
      <point x="117" y="-331" type="curve" smooth="yes"/>
      <point x="117" y="-546"/>
      <point x="408" y="-700"/>
      <point x="896" y="-700" type="curve" smooth="yes"/>
      <point x="1435" y="-700"/>
      <point x="1701" y="-493"/>
      <point x="1701" y="-94" type="curve" smooth="yes"/>
      <point x="1701" y="-66" type="line" smooth="yes"/>
      <point x="1701" y="133"/>
      <point x="1632" y="243"/>
    </contour>
    <component base="Pa.tm"/>
  </outline>
</glyph>
<glyph name="RaBeak_Nonexporting" format="2">
  <advance width="449"/>
  <outline>
    <contour>
      <point x="168" y="1098" type="line"/>
      <point x="449" y="1098" type="line"/>
      <point x="440" y="1131" type="line"/>
      <point x="168" y="1131" type="line"/>
    </contour>
  </outline>
</glyph>
<glyph name="RaMatraUu.tm" format="2">
  <advance width="2341"/>
  <note>
RaMatraUu.tm
</note>
  <outline>
    <contour>
      <point x="1589" y="1109" type="line"/>
      <point x="1589" y="1" type="line"/>
      <point x="1625" y="1" type="line"/>
      <point x="1625" y="1109" type="line"/>
    </contour>
    <contour>
      <point x="1914" y="734" type="curve" smooth="yes"/>
      <point x="1758" y="734"/>
      <point x="1660" y="645"/>
      <point x="1625" y="524" type="curve"/>
      <point x="1612" y="524" type="line"/>
      <point x="1612" y="431" type="line"/>
      <point x="1619" y="431" type="line"/>
      <point x="1656" y="602"/>
      <point x="1757" y="699"/>
      <point x="1912" y="699" type="curve" smooth="yes"/>
      <point x="2097" y="699"/>
      <point x="2164" y="576"/>
      <point x="2164" y="349" type="curve" smooth="yes"/>
      <point x="2164" y="319" type="line" smooth="yes"/>
      <point x="2164" y="-220"/>
      <point x="1881" y="-465"/>
      <point x="1272" y="-465" type="curve" smooth="yes"/>
      <point x="1260" y="-465" type="line" smooth="yes"/>
      <point x="577" y="-465"/>
      <point x="217" y="-182"/>
      <point x="217" y="474" type="curve" smooth="yes"/>
      <point x="217" y="571" type="line"/>
      <point x="217" y="700" type="line"/>
      <point x="217" y="982"/>
      <point x="311" y="1117"/>
      <point x="484" y="1117" type="curve" smooth="yes"/>
      <point x="637" y="1117"/>
      <point x="711" y="1013"/>
      <point x="711" y="824" type="curve"/>
      <point x="711" y="747" type="line" smooth="yes"/>
      <point x="711" y="562"/>
      <point x="641" y="454"/>
      <point x="472" y="454" type="curve" smooth="yes"/>
      <point x="352" y="454"/>
      <point x="250" y="512"/>
      <point x="213" y="599" type="curve"/>
      <point x="210" y="599" type="line"/>
      <point x="210" y="571" type="line"/>
      <point x="217" y="571" type="line"/>
      <point x="238" y="528" type="line"/>
      <point x="274" y="477"/>
      <point x="353" y="420"/>
      <point x="476" y="420" type="curve" smooth="yes"/>
      <point x="666" y="420"/>
      <point x="747" y="540"/>
      <point x="747" y="745" type="curve"/>
      <point x="747" y="825" type="line" smooth="yes"/>
      <point x="747" y="1033"/>
      <point x="658" y="1150"/>
      <point x="484" y="1150" type="curve" smooth="yes"/>
      <point x="288" y="1150"/>
      <point x="180" y="1006"/>
      <point x="180" y="702" type="curve" smooth="yes"/>
      <point x="180" y="472" type="line" smooth="yes"/>
      <point x="180" y="-202"/>
      <point x="554" y="-500"/>
      <point x="1260" y="-500" type="curve" smooth="yes"/>
      <point x="1272" y="-500" type="line" smooth="yes"/>
      <point x="1911" y="-500"/>
      <point x="2201" y="-233"/>
      <point x="2201" y="317" type="curve" smooth="yes"/>
      <point x="2201" y="353" type="line" smooth="yes"/>
      <point x="2201" y="601"/>
      <point x="2117" y="734"/>
    </contour>
    <contour>
      <point x="1789" y="1131" type="line"/>
      <point x="1015" y="1131" type="line"/>
      <point x="1015" y="0" type="line"/>
      <point x="1051" y="0" type="line"/>
      <point x="1051" y="1098" type="line"/>
      <point x="1789" y="1098" type="line"/>
    </contour>
    <component base="RaBeak_Nonexporting" xOffset="1591"/>
  </outline>
</glyph>
<glyph name="RraMatraAa_Simple.tm" format="2">
  <advance width="2101"/>
  <outline>
    <contour>
      <point x="196" y="1131" type="line"/>
      <point x="196" y="458" type="line"/>
      <point x="196" y="-163"/>
      <point x="504" y="-467"/>
      <point x="1142" y="-467" type="curve" smooth="yes"/>
      <point x="1151" y="-467" type="line" smooth="yes"/>
      <point x="1679" y="-467"/>
      <point x="1946" y="-240"/>
      <point x="1946" y="192" type="curve" smooth="yes"/>
      <point x="1946" y="208" type="line" smooth="yes"/>
      <point x="1946" y="448"/>
      <point x="1828" y="536"/>
      <point x="1666" y="545" type="curve"/>
      <point x="1666" y="547" type="line"/>
      <point x="1822" y="556"/>
      <point x="1915" y="651"/>
      <point x="1915" y="821" type="curve" smooth="yes"/>
      <point x="1915" y="838" type="line" smooth="yes"/>
      <point x="1915" y="1030"/>
      <point x="1824" y="1150"/>
      <point x="1621" y="1150" type="curve" smooth="yes"/>
      <point x="1435" y="1150"/>
      <point x="1326" y="1043"/>
      <point x="1312" y="859" type="curve"/>
      <point x="1311" y="859" type="line"/>
      <point x="1298" y="1046"/>
      <point x="1217" y="1150"/>
      <point x="1035" y="1150" type="curve" smooth="yes"/>
      <point x="845" y="1150"/>
      <point x="737" y="1032"/>
      <point x="737" y="788" type="curve" smooth="yes"/>
      <point x="737" y="0" type="line"/>
      <point x="773" y="0" type="line"/>
      <point x="773" y="786" type="line" smooth="yes"/>
      <point x="773" y="1012"/>
      <point x="865" y="1115"/>
      <point x="1035" y="1115" type="curve" smooth="yes"/>
      <point x="1216" y="1115"/>
      <point x="1291" y="1013"/>
      <point x="1291" y="786" type="curve"/>
      <point x="1291" y="0" type="line"/>
      <point x="1327" y="0" type="line"/>
      <point x="1327" y="763" type="line" smooth="yes"/>
      <point x="1327" y="1019"/>
      <point x="1439" y="1115"/>
      <point x="1619" y="1115" type="curve" smooth="yes"/>
      <point x="1805" y="1115"/>
      <point x="1878" y="1009"/>
      <point x="1878" y="836" type="curve" smooth="yes"/>
      <point x="1878" y="822" type="line" smooth="yes"/>
      <point x="1878" y="662"/>
      <point x="1801" y="564"/>
      <point x="1605" y="562" type="curve" smooth="yes"/>
      <point x="1513" y="561" type="line"/>
      <point x="1513" y="530" type="line"/>
      <point x="1601" y="529" type="line" smooth="yes"/>
      <point x="1802" y="527"/>
      <point x="1909" y="438"/>
      <point x="1909" y="207" type="curve" smooth="yes"/>
      <point x="1909" y="192" type="line" smooth="yes"/>
      <point x="1909" y="-225"/>
      <point x="1650" y="-432"/>
      <point x="1151" y="-432" type="curve" smooth="yes"/>
      <point x="1142" y="-432" type="line" smooth="yes"/>
      <point x="530" y="-432"/>
      <point x="233" y="-145"/>
      <point x="233" y="458" type="curve"/>
      <point x="233" y="1131" type="line"/>
    </contour>
  </outline>
</glyph>
<glyph name="SaMatraIi.tm" format="2">
  <advance width="2438"/>
  <note>
SaMatraIi.tm
</note>
  <outline>
    <contour>
      <point x="1742" y="1430" type="line" smooth="yes"/>
      <point x="1742" y="1614"/>
      <point x="1828" y="1725"/>
      <point x="1995" y="1748" type="curve"/>
      <point x="1995" y="1748" type="line"/>
      <point x="2021" y="1752"/>
      <point x="2047" y="1753"/>
      <point x="2075" y="1753" type="curve" smooth="yes"/>
      <point x="2258" y="1753"/>
      <point x="2338" y="1677"/>
      <point x="2338" y="1531" type="curve" smooth="yes"/>
      <point x="2338" y="1526" type="line" smooth="yes"/>
      <point x="2338" y="1397"/>
      <point x="2280" y="1334"/>
      <point x="2161" y="1334" type="curve" smooth="yes"/>
      <point x="2033" y="1334"/>
      <point x="1976" y="1409"/>
      <point x="1976" y="1539" type="curve" smooth="yes"/>
      <point x="1976" y="1555" type="line" smooth="yes"/>
      <point x="1976" y="1638"/>
      <point x="1993" y="1709"/>
      <point x="2031" y="1757" type="curve"/>
      <point x="1995" y="1758" type="line"/>
      <point x="1995" y="1748" type="line"/>
      <point x="1962" y="1706"/>
      <point x="1940" y="1638"/>
      <point x="1940" y="1551" type="curve" smooth="yes"/>
      <point x="1940" y="1534" type="line" smooth="yes"/>
      <point x="1940" y="1391"/>
      <point x="2012" y="1301"/>
      <point x="2162" y="1301" type="curve" smooth="yes"/>
      <point x="2304" y="1301"/>
      <point x="2373" y="1379"/>
      <point x="2373" y="1524" type="curve" smooth="yes"/>
      <point x="2373" y="1533" type="line" smooth="yes"/>
      <point x="2373" y="1694"/>
      <point x="2279" y="1786"/>
      <point x="2073" y="1786" type="curve" smooth="yes"/>
      <point x="1832" y="1786"/>
      <point x="1706" y="1661"/>
      <point x="1706" y="1432" type="curve" smooth="yes"/>
      <point x="1706" y="1418" type="line" smooth="yes"/>
      <point x="1706" y="1279"/>
      <point x="1753" y="1169"/>
      <point x="1796" y="1107" type="curve"/>
      <point x="1823" y="1112"/>
      <point x="1861" y="1116"/>
      <point x="1893" y="1116" type="curve" smooth="yes"/>
      <point x="2149" y="1116"/>
      <point x="2221" y="968"/>
      <point x="2221" y="723" type="curve" smooth="yes"/>
      <point x="2221" y="407" type="line" smooth="yes"/>
      <point x="2221" y="151"/>
      <point x="2141" y="15"/>
      <point x="1946" y="15" type="curve" smooth="yes"/>
      <point x="1747" y="15"/>
      <point x="1663" y="135"/>
      <point x="1663" y="400" type="curve" smooth="yes"/>
      <point x="1663" y="784" type="line" smooth="yes"/>
      <point x="1663" y="1037"/>
      <point x="1573" y="1150"/>
      <point x="1386" y="1150" type="curve" smooth="yes"/>
      <point x="1204" y="1150"/>
      <point x="1102" y="1041"/>
      <point x="1102" y="795" type="curve" smooth="yes"/>
      <point x="1102" y="746" type="line"/>
      <point x="1100" y="746" type="line"/>
      <point x="1081" y="988"/>
      <point x="951" y="1150"/>
      <point x="666" y="1150" type="curve" smooth="yes"/>
      <point x="339" y="1150"/>
      <point x="170" y="958"/>
      <point x="170" y="591" type="curve" smooth="yes"/>
      <point x="170" y="356" type="line" smooth="yes"/>
      <point x="170" y="119"/>
      <point x="268" y="-20"/>
      <point x="476" y="-20" type="curve" smooth="yes"/>
      <point x="666" y="-20"/>
      <point x="756" y="100"/>
      <point x="756" y="300" type="curve" smooth="yes"/>
      <point x="756" y="423" type="line" smooth="yes"/>
      <point x="756" y="618"/>
      <point x="667" y="724"/>
      <point x="491" y="724" type="curve" smooth="yes"/>
      <point x="346" y="724"/>
      <point x="243" y="637"/>
      <point x="206" y="531" type="curve"/>
      <point x="198" y="531" type="line"/>
      <point x="198" y="443" type="line"/>
      <point x="227" y="584"/>
      <point x="334" y="689"/>
      <point x="487" y="689" type="curve" smooth="yes"/>
      <point x="645" y="689"/>
      <point x="720" y="595"/>
      <point x="720" y="422" type="curve" smooth="yes"/>
      <point x="720" y="301" type="line" smooth="yes"/>
      <point x="720" y="119"/>
      <point x="642" y="14"/>
      <point x="476" y="14" type="curve" smooth="yes"/>
      <point x="293" y="14"/>
      <point x="207" y="139"/>
      <point x="207" y="345" type="curve"/>
      <point x="207" y="531" type="line"/>
      <point x="206" y="531" type="line"/>
      <point x="206" y="553"/>
      <point x="206" y="568"/>
      <point x="206" y="590" type="curve" smooth="yes"/>
      <point x="206" y="934"/>
      <point x="360" y="1115"/>
      <point x="666" y="1115" type="curve" smooth="yes"/>
      <point x="992" y="1115"/>
      <point x="1092" y="915"/>
      <point x="1092" y="571" type="curve" smooth="yes"/>
      <point x="1092" y="0" type="line"/>
      <point x="1128" y="0" type="line"/>
      <point x="1128" y="783" type="line" smooth="yes"/>
      <point x="1128" y="1020"/>
      <point x="1224" y="1115"/>
      <point x="1386" y="1115" type="curve" smooth="yes"/>
      <point x="1553" y="1115"/>
      <point x="1627" y="1018"/>
      <point x="1627" y="781" type="curve" smooth="yes"/>
      <point x="1627" y="395" type="line" smooth="yes"/>
      <point x="1627" y="113"/>
      <point x="1724" y="-19"/>
      <point x="1946" y="-19" type="curve" smooth="yes"/>
      <point x="2161" y="-19"/>
      <point x="2258" y="127"/>
      <point x="2258" y="406" type="curve" smooth="yes"/>
      <point x="2258" y="723" type="line" smooth="yes"/>
      <point x="2258" y="989"/>
      <point x="2169" y="1150"/>
      <point x="1895" y="1150" type="curve" smooth="yes"/>
      <point x="1868" y="1150"/>
      <point x="1835" y="1146"/>
      <point x="1815" y="1142" type="curve"/>
      <point x="1822" y="1132" type="line"/>
      <point x="1784" y="1187"/>
      <point x="1742" y="1291"/>
      <point x="1742" y="1418" type="curve" smooth="yes"/>
    </contour>
  </outline>
</glyph>
<glyph name="SaMatraUu.tm" format="2">
  <advance width="3646"/>
  <note>
SaMatraUu.tm
</note>
  <outline>
    <contour>
      <point x="2354" y="1131" type="line"/>
      <point x="2028" y="1131" type="line"/>
      <point x="2063" y="1098" type="line"/>
      <point x="2354" y="1098" type="line"/>
    </contour>
    <contour>
      <point x="666" y="1150" type="curve" smooth="yes"/>
      <point x="339" y="1150"/>
      <point x="170" y="958"/>
      <point x="170" y="591" type="curve" smooth="yes"/>
      <point x="170" y="356" type="line" smooth="yes"/>
      <point x="170" y="119"/>
      <point x="268" y="-20"/>
      <point x="476" y="-20" type="curve" smooth="yes"/>
      <point x="666" y="-20"/>
      <point x="756" y="100"/>
      <point x="756" y="300" type="curve" smooth="yes"/>
      <point x="756" y="423" type="line" smooth="yes"/>
      <point x="756" y="618"/>
      <point x="667" y="724"/>
      <point x="491" y="724" type="curve" smooth="yes"/>
      <point x="346" y="724"/>
      <point x="243" y="637"/>
      <point x="206" y="531" type="curve"/>
      <point x="198" y="531" type="line"/>
      <point x="198" y="443" type="line"/>
      <point x="227" y="584"/>
      <point x="334" y="689"/>
      <point x="487" y="689" type="curve" smooth="yes"/>
      <point x="645" y="689"/>
      <point x="720" y="595"/>
      <point x="720" y="422" type="curve" smooth="yes"/>
      <point x="720" y="301" type="line" smooth="yes"/>
      <point x="720" y="119"/>
      <point x="642" y="14"/>
      <point x="476" y="14" type="curve" smooth="yes"/>
      <point x="293" y="14"/>
      <point x="207" y="139"/>
      <point x="207" y="345" type="curve"/>
      <point x="207" y="531" type="line"/>
      <point x="206" y="531" type="line"/>
      <point x="206" y="553"/>
      <point x="206" y="568"/>
      <point x="206" y="590" type="curve" smooth="yes"/>
      <point x="206" y="934"/>
      <point x="360" y="1115"/>
      <point x="666" y="1115" type="curve" smooth="yes"/>
      <point x="992" y="1115"/>
      <point x="1092" y="915"/>
      <point x="1092" y="571" type="curve" smooth="yes"/>
      <point x="1092" y="0" type="line"/>
      <point x="1128" y="0" type="line"/>
      <point x="1128" y="783" type="line" smooth="yes"/>
      <point x="1128" y="1020"/>
      <point x="1224" y="1115"/>
      <point x="1386" y="1115" type="curve" smooth="yes"/>
      <point x="1553" y="1115"/>
      <point x="1627" y="1018"/>
      <point x="1627" y="781" type="curve" smooth="yes"/>
      <point x="1627" y="395" type="line" smooth="yes"/>
      <point x="1627" y="113"/>
      <point x="1724" y="-19"/>
      <point x="1946" y="-19" type="curve" smooth="yes"/>
      <point x="2161" y="-19"/>
      <point x="2258" y="127"/>
      <point x="2258" y="406" type="curve" smooth="yes"/>
      <point x="2258" y="706" type="line" smooth="yes"/>
      <point x="2258" y="904"/>
      <point x="2217" y="1047"/>
      <point x="2082" y="1108" type="curve"/>
      <point x="2068" y="1118" type="line"/>
      <point x="2019" y="1139"/>
      <point x="1960" y="1150"/>
      <point x="1887" y="1150" type="curve" smooth="yes"/>
      <point x="1854" y="1150"/>
      <point x="1826" y="1147"/>
      <point x="1800" y="1143" type="curve"/>
      <point x="1790" y="1108" type="line"/>
      <point x="1820" y="1112"/>
      <point x="1851" y="1115"/>
      <point x="1888" y="1115" type="curve" smooth="yes"/>
      <point x="2156" y="1115"/>
      <point x="2221" y="961"/>
      <point x="2221" y="706" type="curve" smooth="yes"/>
      <point x="2221" y="407" type="line" smooth="yes"/>
      <point x="2221" y="151"/>
      <point x="2141" y="15"/>
      <point x="1946" y="15" type="curve" smooth="yes"/>
      <point x="1747" y="15"/>
      <point x="1663" y="135"/>
      <point x="1663" y="400" type="curve" smooth="yes"/>
      <point x="1663" y="784" type="line" smooth="yes"/>
      <point x="1663" y="1037"/>
      <point x="1573" y="1150"/>
      <point x="1386" y="1150" type="curve" smooth="yes"/>
      <point x="1204" y="1150"/>
      <point x="1102" y="1041"/>
      <point x="1102" y="795" type="curve" smooth="yes"/>
      <point x="1102" y="746" type="line"/>
      <point x="1100" y="746" type="line"/>
      <point x="1081" y="988"/>
      <point x="951" y="1150"/>
    </contour>
    <component base="MatraUuDflt.tm" xOffset="2183"/>
  </outline>
</glyph>
<glyph name="ShaMatraIi.tm" format="2">
  <advance width="2037"/>
  <note>
ShaMatraIi.tm
</note>
  <anchor x="1024" y="1245" name="top"/>
  <outline>
    <contour>
      <point x="1729" y="1440" type="line" smooth="yes"/>
      <point x="1729" y="1618"/>
      <point x="1815" y="1726"/>
      <point x="1982" y="1748" type="curve"/>
      <point x="1982" y="1748" type="line"/>
      <point x="2008" y="1752"/>
      <point x="2034" y="1753"/>
      <point x="2062" y="1753" type="curve" smooth="yes"/>
      <point x="2245" y="1753"/>
      <point x="2325" y="1677"/>
      <point x="2325" y="1531" type="curve" smooth="yes"/>
      <point x="2325" y="1526" type="line" smooth="yes"/>
      <point x="2325" y="1397"/>
      <point x="2267" y="1334"/>
      <point x="2148" y="1334" type="curve" smooth="yes"/>
      <point x="2020" y="1334"/>
      <point x="1963" y="1409"/>
      <point x="1963" y="1539" type="curve" smooth="yes"/>
      <point x="1963" y="1555" type="line" smooth="yes"/>
      <point x="1963" y="1638"/>
      <point x="1980" y="1709"/>
      <point x="2018" y="1757" type="curve"/>
      <point x="1982" y="1758" type="line"/>
      <point x="1982" y="1748" type="line"/>
      <point x="1949" y="1706"/>
      <point x="1927" y="1638"/>
      <point x="1927" y="1551" type="curve" smooth="yes"/>
      <point x="1927" y="1534" type="line" smooth="yes"/>
      <point x="1927" y="1391"/>
      <point x="1999" y="1301"/>
      <point x="2149" y="1301" type="curve" smooth="yes"/>
      <point x="2291" y="1301"/>
      <point x="2360" y="1379"/>
      <point x="2360" y="1524" type="curve" smooth="yes"/>
      <point x="2360" y="1533" type="line" smooth="yes"/>
      <point x="2360" y="1694"/>
      <point x="2266" y="1786"/>
      <point x="2060" y="1786" type="curve" smooth="yes"/>
      <point x="1819" y="1786"/>
      <point x="1693" y="1665"/>
      <point x="1693" y="1442" type="curve" smooth="yes"/>
      <point x="1693" y="1428" type="line" smooth="yes"/>
      <point x="1693" y="1296"/>
      <point x="1741" y="1188"/>
      <point x="1796" y="1131" type="curve"/>
      <point x="1837" y="1131" type="line"/>
      <point x="1772" y="1197"/>
      <point x="1729" y="1298"/>
      <point x="1729" y="1428" type="curve" smooth="yes"/>
    </contour>
    <component base="Sha.tm"/>
  </outline>
</glyph>
<glyph name="ShaMatraIi_SimpleIi.tm" format="2">
  <advance width="2037"/>
  <note>
ShaMatraIi.tm
</note>
  <anchor x="1024" y="1245" name="top"/>
  <outline>
    <contour>
      <point x="1941" y="1786" type="curve" smooth="yes"/>
      <point x="1773" y="1786"/>
      <point x="1672" y="1688"/>
      <point x="1672" y="1490" type="curve" smooth="yes"/>
      <point x="1672" y="1434" type="line" smooth="yes"/>
      <point x="1672" y="1286"/>
      <point x="1714" y="1185"/>
      <point x="1789" y="1131" type="curve"/>
      <point x="1837" y="1131" type="line"/>
      <point x="1744" y="1194"/>
      <point x="1708" y="1291"/>
      <point x="1708" y="1426" type="curve" smooth="yes"/>
      <point x="1708" y="1451" type="line"/>
      <point x="1708" y="1494" type="line" smooth="yes"/>
      <point x="1708" y="1669"/>
      <point x="1795" y="1753"/>
      <point x="1941" y="1753" type="curve" smooth="yes"/>
      <point x="2078" y="1753"/>
      <point x="2152" y="1686"/>
      <point x="2152" y="1558" type="curve" smooth="yes"/>
      <point x="2152" y="1543" type="line" smooth="yes"/>
      <point x="2152" y="1416"/>
      <point x="2087" y="1350"/>
      <point x="1946" y="1350" type="curve" smooth="yes"/>
      <point x="1822" y="1350"/>
      <point x="1736" y="1402"/>
      <point x="1704" y="1471" type="curve"/>
      <point x="1701" y="1471" type="line"/>
      <point x="1701" y="1439" type="line"/>
      <point x="1707" y="1439" type="line"/>
      <point x="1735" y="1395" type="line"/>
      <point x="1764" y="1359"/>
      <point x="1841" y="1317"/>
      <point x="1950" y="1317" type="curve" smooth="yes"/>
      <point x="2118" y="1317"/>
      <point x="2188" y="1404"/>
      <point x="2188" y="1542" type="curve" smooth="yes"/>
      <point x="2188" y="1559" type="line" smooth="yes"/>
      <point x="2188" y="1705"/>
      <point x="2100" y="1786"/>
    </contour>
    <component base="Sha.tm"/>
  </outline>
</glyph>
<glyph name="ShaMatraU.tm" format="2">
  <advance width="2830"/>
  <note>
ShaMatraU.tm
</note>
  <anchor x="1024" y="1245" name="top"/>
  <outline>
    <contour>
      <point x="1865" y="1131" type="line"/>
      <point x="1631" y="1131" type="line"/>
      <point x="1665" y="1098" type="line"/>
      <point x="1865" y="1098" type="line"/>
    </contour>
    <component base="Sha.tm"/>
    <component base="MatraUDflt.tm" xOffset="1790"/>
  </outline>
</glyph>
<glyph name="TaMatraU_Simple.tm" format="2">
  <advance width="2028"/>
  <note>
TaMatraU.tm
</note>
  <outline>
    <contour>
      <point x="1787" y="1131" type="line"/>
      <point x="1787" y="-310" type="line"/>
      <point x="1823" y="-310" type="line"/>
      <point x="1823" y="1131" type="line"/>
    </contour>
    <contour>
      <point x="885" y="624" type="line"/>
      <point x="954" y="624" type="line" smooth="yes"/>
      <point x="1245" y="624"/>
      <point x="1360" y="528"/>
      <point x="1360" y="260" type="curve" smooth="yes"/>
      <point x="1360" y="210" type="line" smooth="yes"/>
      <point x="1360" y="-141"/>
      <point x="1226" y="-276"/>
      <point x="848" y="-285" type="curve"/>
      <point x="76" y="-285" type="line"/>
      <point x="86" y="-318" type="line"/>
      <point x="1823" y="-318" type="line"/>
      <point x="1823" y="-285" type="line"/>
      <point x="1079" y="-285" type="line"/>
      <point x="1079" y="-283" type="line"/>
      <point x="1290" y="-243"/>
      <point x="1397" y="-88"/>
      <point x="1397" y="209" type="curve" smooth="yes"/>
      <point x="1397" y="260" type="line" smooth="yes"/>
      <point x="1397" y="546"/>
      <point x="1268" y="656"/>
      <point x="959" y="656" type="curve" smooth="yes"/>
      <point x="885" y="656" type="line"/>
    </contour>
    <component base="KaComponent_Nonexporting" xOffset="88"/>
    <component base="KaBeak_Nonexporting" xOffset="946"/>
  </outline>
</glyph>
<glyph name="Ta_Simple.tm" format="2">
  <advance width="1532"/>
  <note>
Ta.tm
</note>
  <anchor x="876" y="1245" name="top"/>
  <outline>
    <contour>
      <point x="883" y="624" type="line"/>
      <point x="954" y="624" type="line" smooth="yes"/>
      <point x="1245" y="624"/>
      <point x="1360" y="528"/>
      <point x="1360" y="260" type="curve" smooth="yes"/>
      <point x="1360" y="207" type="line" smooth="yes"/>
      <point x="1360" y="-163"/>
      <point x="1221" y="-285"/>
      <point x="791" y="-285" type="curve" smooth="yes"/>
      <point x="76" y="-285" type="line"/>
      <point x="86" y="-318" type="line"/>
      <point x="793" y="-318" type="line" smooth="yes"/>
      <point x="1239" y="-318"/>
      <point x="1397" y="-183"/>
      <point x="1397" y="207" type="curve" smooth="yes"/>
      <point x="1397" y="260" type="line" smooth="yes"/>
      <point x="1397" y="546"/>
      <point x="1268" y="656"/>
      <point x="959" y="656" type="curve" smooth="yes"/>
      <point x="883" y="656" type="line"/>
    </contour>
    <component base="KaComponent_Nonexporting" xOffset="88"/>
    <component base="KaBeak_Nonexporting" xOffset="945"/>
  </outline>
</glyph>
<glyph name="TtaMatraI.tm" format="2">
  <advance width="1553"/>
  <note>
TtaMatraI.tm
</note>
  <outline>
    <contour>
      <point x="359" y="33" type="line"/>
      <point x="241" y="33" type="line"/>
      <point x="241" y="1119" type="line"/>
      <point x="205" y="1119" type="line"/>
      <point x="205" y="0" type="line"/>
      <point x="359" y="0" type="line"/>
    </contour>
    <component base="Ssa_Above_NonExporting" xOffset="276"/>
    <component base="Ssa_Below_NonExporting" xOffset="727"/>
  </outline>
</glyph>
<glyph name="TtaMatraU.tm" format="2">
  <advance width="1582"/>
  <note>
TtaMatraU.tm
</note>
  <outline>
    <contour>
      <point x="783" y="1131" type="line"/>
      <point x="783" y="0" type="line"/>
      <point x="819" y="0" type="line"/>
      <point x="819" y="1131" type="line"/>
    </contour>
    <contour>
      <point x="1412" y="894" type="curve"/>
      <point x="1412" y="1357"/>
      <point x="1228" y="1590"/>
      <point x="828" y="1590" type="curve" smooth="yes"/>
      <point x="400" y="1590"/>
      <point x="195" y="1315"/>
      <point x="195" y="762" type="curve" smooth="yes"/>
      <point x="195" y="406" type="line" smooth="yes"/>
      <point x="195" y="-152"/>
      <point x="397" y="-423"/>
      <point x="823" y="-423" type="curve" smooth="yes"/>
      <point x="1204" y="-423"/>
      <point x="1377" y="-207"/>
      <point x="1377" y="237" type="curve" smooth="yes"/>
      <point x="1377" y="343" type="line" smooth="yes"/>
      <point x="1377" y="592"/>
      <point x="1293" y="734"/>
      <point x="1095" y="734" type="curve" smooth="yes"/>
      <point x="947" y="734"/>
      <point x="851" y="634"/>
      <point x="819" y="500" type="curve"/>
      <point x="807" y="500" type="line"/>
      <point x="807" y="407" type="line"/>
      <point x="813" y="407" type="line"/>
      <point x="848" y="594"/>
      <point x="946" y="699"/>
      <point x="1092" y="699" type="curve" smooth="yes"/>
      <point x="1273" y="699"/>
      <point x="1341" y="568"/>
      <point x="1341" y="340" type="curve" smooth="yes"/>
      <point x="1341" y="237" type="line" smooth="yes"/>
      <point x="1341" y="-191"/>
      <point x="1176" y="-389"/>
      <point x="823" y="-389" type="curve" smooth="yes"/>
      <point x="421" y="-389"/>
      <point x="232" y="-133"/>
      <point x="232" y="406" type="curve" smooth="yes"/>
      <point x="232" y="762" type="line" smooth="yes"/>
      <point x="232" y="1295"/>
      <point x="425" y="1556"/>
      <point x="828" y="1556" type="curve" smooth="yes"/>
      <point x="1200" y="1556"/>
      <point x="1376" y="1341"/>
      <point x="1376" y="894" type="curve" smooth="yes"/>
      <point x="1376" y="870"/>
      <point x="1375" y="843"/>
      <point x="1374" y="817" type="curve"/>
      <point x="1411" y="817" type="line"/>
      <point x="1412" y="841"/>
      <point x="1412" y="870"/>
    </contour>
  </outline>
</glyph>
<glyph name="VaMatraI_SimpleFly.tm" format="2">
  <advance width="1842"/>
  <note>
VaMatraI.tm
</note>
  <outline>
    <contour>
      <point x="1804" y="1517" type="line"/>
      <point x="1504" y="1517" type="line" smooth="yes"/>
      <point x="1339" y="1517"/>
      <point x="1275" y="1461"/>
      <point x="1275" y="1349" type="curve" smooth="yes"/>
      <point x="1275" y="1298"/>
      <point x="1294" y="1238"/>
      <point x="1314" y="1194" type="curve" smooth="yes"/>
      <point x="1347" y="1123"/>
      <point x="1381" y="1098"/>
      <point x="1482" y="1098" type="curve" smooth="yes"/>
      <point x="1607" y="1098" type="line"/>
      <point x="1612" y="1131" type="line"/>
      <point x="1478" y="1131" type="line" smooth="yes"/>
      <point x="1403" y="1131"/>
      <point x="1376" y="1146"/>
      <point x="1346" y="1207" type="curve" smooth="yes"/>
      <point x="1329" y="1246"/>
      <point x="1311" y="1303"/>
      <point x="1311" y="1346" type="curve" smooth="yes"/>
      <point x="1311" y="1441"/>
      <point x="1363" y="1484"/>
      <point x="1510" y="1484" type="curve" smooth="yes"/>
      <point x="1814" y="1484" type="line"/>
    </contour>
    <contour>
      <point x="1602" y="1131" type="line"/>
      <point x="1602" y="33" type="line"/>
      <point x="1211" y="33" type="line"/>
      <point x="1211" y="0" type="line"/>
      <point x="1637" y="0" type="line"/>
      <point x="1637" y="1131" type="line"/>
    </contour>
    <component base="Va_NonExporting" xOffset="25"/>
  </outline>
</glyph>
<glyph name="VaMatraIi.tm" format="2">
  <advance width="1879"/>
  <note>
VaMatraIi.tm
</note>
  <outline>
    <contour>
      <point x="1638" y="1131" type="line"/>
      <point x="1638" y="32" type="line"/>
      <point x="1217" y="32" type="line"/>
      <point x="1217" y="0" type="line"/>
      <point x="1674" y="0" type="line"/>
      <point x="1674" y="1131" type="line"/>
    </contour>
    <contour>
      <point x="1733" y="1786" type="curve" smooth="yes"/>
      <point x="1433" y="1786"/>
      <point x="1271" y="1616"/>
      <point x="1271" y="1298" type="curve" smooth="yes"/>
      <point x="1271" y="1253" type="line" smooth="yes"/>
      <point x="1271" y="961"/>
      <point x="1404" y="799"/>
      <point x="1641" y="771" type="curve"/>
      <point x="1641" y="804" type="line"/>
      <point x="1419" y="834"/>
      <point x="1307" y="986"/>
      <point x="1307" y="1253" type="curve" smooth="yes"/>
      <point x="1307" y="1296" type="line" smooth="yes"/>
      <point x="1307" y="1571"/>
      <point x="1427" y="1722"/>
      <point x="1655" y="1748" type="curve"/>
      <point x="1655" y="1748" type="line"/>
      <point x="1681" y="1752"/>
      <point x="1707" y="1753"/>
      <point x="1735" y="1753" type="curve" smooth="yes"/>
      <point x="1918" y="1753"/>
      <point x="1998" y="1677"/>
      <point x="1998" y="1531" type="curve" smooth="yes"/>
      <point x="1998" y="1526" type="line" smooth="yes"/>
      <point x="1998" y="1397"/>
      <point x="1940" y="1334"/>
      <point x="1821" y="1334" type="curve" smooth="yes"/>
      <point x="1693" y="1334"/>
      <point x="1636" y="1409"/>
      <point x="1636" y="1539" type="curve" smooth="yes"/>
      <point x="1636" y="1555" type="line" smooth="yes"/>
      <point x="1636" y="1638"/>
      <point x="1653" y="1709"/>
      <point x="1691" y="1757" type="curve"/>
      <point x="1655" y="1758" type="line"/>
      <point x="1655" y="1748" type="line"/>
      <point x="1622" y="1706"/>
      <point x="1600" y="1638"/>
      <point x="1600" y="1551" type="curve" smooth="yes"/>
      <point x="1600" y="1534" type="line" smooth="yes"/>
      <point x="1600" y="1391"/>
      <point x="1672" y="1301"/>
      <point x="1822" y="1301" type="curve" smooth="yes"/>
      <point x="1964" y="1301"/>
      <point x="2033" y="1379"/>
      <point x="2033" y="1524" type="curve" smooth="yes"/>
      <point x="2033" y="1533" type="line" smooth="yes"/>
      <point x="2033" y="1694"/>
      <point x="1939" y="1786"/>
    </contour>
    <component base="Va_NonExporting" xOffset="25"/>
  </outline>
</glyph>
<glyph name="VaMatraIi_SimpleIi.tm" format="2">
  <advance width="1843"/>
  <note>
VaMatraIi.tm
</note>
  <outline>
    <contour>
      <point x="1638" y="1131" type="line"/>
      <point x="1602" y="1131" type="line"/>
      <point x="1602" y="32" type="line"/>
      <point x="1211" y="32" type="line"/>
      <point x="1211" y="0" type="line"/>
      <point x="1638" y="0" type="line"/>
    </contour>
    <contour>
      <point x="1589" y="1786" type="curve" smooth="yes"/>
      <point x="1421" y="1786"/>
      <point x="1320" y="1688"/>
      <point x="1320" y="1490" type="curve" smooth="yes"/>
      <point x="1320" y="1434" type="line" smooth="yes"/>
      <point x="1320" y="1188"/>
      <point x="1437" y="1099"/>
      <point x="1607" y="1099" type="curve"/>
      <point x="1616" y="1099" type="line"/>
      <point x="1616" y="1131" type="line"/>
      <point x="1611" y="1131" type="line"/>
      <point x="1457" y="1131"/>
      <point x="1355" y="1206"/>
      <point x="1355" y="1426" type="curve" smooth="yes"/>
      <point x="1355" y="1451" type="line"/>
      <point x="1356" y="1494" type="line" smooth="yes"/>
      <point x="1360" y="1669"/>
      <point x="1443" y="1753"/>
      <point x="1589" y="1753" type="curve" smooth="yes"/>
      <point x="1726" y="1753"/>
      <point x="1800" y="1686"/>
      <point x="1800" y="1558" type="curve" smooth="yes"/>
      <point x="1800" y="1543" type="line" smooth="yes"/>
      <point x="1800" y="1416"/>
      <point x="1735" y="1350"/>
      <point x="1594" y="1350" type="curve" smooth="yes"/>
      <point x="1470" y="1350"/>
      <point x="1384" y="1402"/>
      <point x="1352" y="1471" type="curve"/>
      <point x="1349" y="1471" type="line"/>
      <point x="1349" y="1439" type="line"/>
      <point x="1355" y="1439" type="line"/>
      <point x="1383" y="1395" type="line"/>
      <point x="1412" y="1359"/>
      <point x="1489" y="1317"/>
      <point x="1598" y="1317" type="curve" smooth="yes"/>
      <point x="1766" y="1317"/>
      <point x="1836" y="1404"/>
      <point x="1836" y="1542" type="curve" smooth="yes"/>
      <point x="1836" y="1559" type="line" smooth="yes"/>
      <point x="1836" y="1705"/>
      <point x="1748" y="1786"/>
    </contour>
    <component base="Va_NonExporting" xOffset="25"/>
  </outline>
</glyph>
<glyph name="VaMatraUu_SimpleUu.tm" format="2">
  <advance width="2151"/>
  <note>
VaMatraUu.tm
</note>
  <anchor x="1058" y="1245" name="top"/>
  <outline>
    <contour>
      <point x="1603" y="188" type="line"/>
      <point x="1603" y="-331" type="line"/>
      <point x="1638" y="-331" type="line"/>
      <point x="1638" y="188" type="line"/>
    </contour>
    <contour>
      <point x="1874" y="243" type="curve" smooth="yes"/>
      <point x="1748" y="243"/>
      <point x="1667" y="160"/>
      <point x="1638" y="66" type="curve"/>
      <point x="1626" y="66" type="line"/>
      <point x="1626" y="-24" type="line"/>
      <point x="1632" y="-24" type="line"/>
      <point x="1662" y="124"/>
      <point x="1747" y="209"/>
      <point x="1873" y="209" type="curve" smooth="yes"/>
      <point x="2028" y="209"/>
      <point x="2082" y="96"/>
      <point x="2082" y="-103" type="curve" smooth="yes"/>
      <point x="2082" y="-178" type="line" smooth="yes"/>
      <point x="2082" y="-472"/>
      <point x="1960" y="-626"/>
      <point x="1674" y="-626" type="curve" smooth="yes"/>
      <point x="1372" y="-626"/>
      <point x="1246" y="-475"/>
      <point x="1246" y="-199" type="curve"/>
      <point x="1246" y="-121" type="line"/>
      <point x="1210" y="-131" type="line"/>
      <point x="1210" y="-200" type="line" smooth="yes"/>
      <point x="1210" y="-499"/>
      <point x="1348" y="-660"/>
      <point x="1674" y="-660" type="curve" smooth="yes"/>
      <point x="1985" y="-660"/>
      <point x="2118" y="-494"/>
      <point x="2118" y="-178" type="curve" smooth="yes"/>
      <point x="2118" y="-101" type="line" smooth="yes"/>
      <point x="2118" y="121"/>
      <point x="2048" y="243"/>
    </contour>
    <component base="Va.tm"/>
  </outline>
</glyph>
<glyph name="Va_NonExporting" format="2">
  <advance width="1425"/>
  <outline>
    <contour>
      <point x="661" y="1151" type="curve" smooth="yes"/>
      <point x="323" y="1151"/>
      <point x="145" y="957"/>
      <point x="145" y="588" type="curve" smooth="yes"/>
      <point x="145" y="356" type="line" smooth="yes"/>
      <point x="145" y="119"/>
      <point x="242" y="-20"/>
      <point x="451" y="-20" type="curve" smooth="yes"/>
      <point x="641" y="-20"/>
      <point x="731" y="100"/>
      <point x="731" y="300" type="curve" smooth="yes"/>
      <point x="731" y="423" type="line" smooth="yes"/>
      <point x="731" y="618"/>
      <point x="642" y="724"/>
      <point x="466" y="724" type="curve" smooth="yes"/>
      <point x="321" y="724"/>
      <point x="218" y="637"/>
      <point x="181" y="531" type="curve"/>
      <point x="173" y="531" type="line"/>
      <point x="173" y="443" type="line"/>
      <point x="202" y="584"/>
      <point x="309" y="689"/>
      <point x="462" y="689" type="curve" smooth="yes"/>
      <point x="620" y="689"/>
      <point x="695" y="595"/>
      <point x="695" y="422" type="curve" smooth="yes"/>
      <point x="695" y="301" type="line" smooth="yes"/>
      <point x="695" y="119"/>
      <point x="617" y="14"/>
      <point x="451" y="14" type="curve" smooth="yes"/>
      <point x="267" y="14"/>
      <point x="182" y="139"/>
      <point x="182" y="345" type="curve"/>
      <point x="182" y="531" type="line"/>
      <point x="181" y="531" type="line"/>
      <point x="181" y="552"/>
      <point x="181" y="566"/>
      <point x="181" y="587" type="curve" smooth="yes"/>
      <point x="181" y="933"/>
      <point x="342" y="1116"/>
      <point x="661" y="1116" type="curve" smooth="yes"/>
      <point x="980" y="1116"/>
      <point x="1103" y="933"/>
      <point x="1103" y="632" type="curve" smooth="yes"/>
      <point x="1103" y="515" type="line" smooth="yes"/>
      <point x="1103" y="286"/>
      <point x="1055" y="141"/>
      <point x="954" y="8" type="curve"/>
      <point x="954" y="0" type="line"/>
      <point x="1425" y="0" type="line"/>
      <point x="1425" y="33" type="line"/>
      <point x="1001" y="33" type="line"/>
      <point x="1000" y="14" type="line"/>
      <point x="1089" y="134"/>
      <point x="1140" y="280"/>
      <point x="1140" y="515" type="curve" smooth="yes"/>
      <point x="1140" y="632" type="line" smooth="yes"/>
      <point x="1140" y="955"/>
      <point x="999" y="1151"/>
    </contour>
  </outline>
</glyph>
<glyph name="VowelIi_Half.tm" format="2">
  <advance width="1204"/>
  <note>
vowelIi.tm
</note>
  <outline>
    <contour>
      <point x="805" y="0" type="line"/>
      <point x="841" y="0" type="line"/>
      <point x="841" y="1109" type="line"/>
      <point x="805" y="1109" type="line"/>
    </contour>
    <contour>
      <point x="499" y="520" type="line"/>
      <point x="504" y="520" type="line" smooth="yes"/>
      <point x="560" y="520"/>
      <point x="576" y="540"/>
      <point x="576" y="585" type="curve" smooth="yes"/>
      <point x="576" y="614" type="line" smooth="yes"/>
      <point x="576" y="658"/>
      <point x="557" y="677"/>
      <point x="504" y="677" type="curve" smooth="yes"/>
      <point x="499" y="677" type="line"/>
    </contour>
    <contour>
      <point x="1069" y="520" type="line"/>
      <point x="1074" y="520" type="line" smooth="yes"/>
      <point x="1129" y="520"/>
      <point x="1145" y="540"/>
      <point x="1145" y="585" type="curve" smooth="yes"/>
      <point x="1145" y="614" type="line" smooth="yes"/>
      <point x="1145" y="658"/>
      <point x="1127" y="677"/>
      <point x="1074" y="677" type="curve" smooth="yes"/>
      <point x="1069" y="677" type="line"/>
    </contour>
    <contour>
      <point x="865" y="1131" type="line"/>
      <point x="205" y="1131" type="line"/>
      <point x="205" y="0" type="line"/>
      <point x="241" y="0" type="line"/>
      <point x="241" y="1098" type="line"/>
      <point x="865" y="1098" type="line"/>
    </contour>
    <component base="RaBeak_Nonexporting" xOffset="660"/>
  </outline>
</glyph>
<glyph name="VowelU_Fused.tm" format="2">
  <advance width="1537"/>
  <note>
vowelU.tm
</note>
  <outline>
    <contour>
      <point x="635" y="1166" type="curve" smooth="yes"/>
      <point x="325" y="1166"/>
      <point x="160" y="1012"/>
      <point x="160" y="730" type="curve" smooth="yes"/>
      <point x="160" y="598" type="line" smooth="yes"/>
      <point x="160" y="401"/>
      <point x="243" y="288"/>
      <point x="426" y="288" type="curve"/>
      <point x="546" y="311" type="line"/>
      <point x="634" y="341"/>
      <point x="674" y="434"/>
      <point x="674" y="559" type="curve" smooth="yes"/>
      <point x="674" y="653" type="line" smooth="yes"/>
      <point x="674" y="821"/>
      <point x="593" y="912"/>
      <point x="441" y="912" type="curve" smooth="yes"/>
      <point x="317" y="912"/>
      <point x="229" y="835"/>
      <point x="195" y="740" type="curve"/>
      <point x="187" y="740" type="line"/>
      <point x="187" y="657" type="line"/>
      <point x="211" y="784"/>
      <point x="308" y="879"/>
      <point x="438" y="879" type="curve" smooth="yes"/>
      <point x="572" y="879"/>
      <point x="638" y="800"/>
      <point x="638" y="652" type="curve" smooth="yes"/>
      <point x="638" y="561" type="line" smooth="yes"/>
      <point x="638" y="409"/>
      <point x="578" y="314"/>
      <point x="428" y="314" type="curve" smooth="yes"/>
      <point x="267" y="314"/>
      <point x="197" y="417"/>
      <point x="197" y="594" type="curve" smooth="yes"/>
      <point x="197" y="740" type="line"/>
      <point x="195" y="740" type="line"/>
      <point x="195" y="993"/>
      <point x="342" y="1133"/>
      <point x="634" y="1133" type="curve" smooth="yes"/>
      <point x="933" y="1133"/>
      <point x="1048" y="1002"/>
      <point x="1048" y="752" type="curve" smooth="yes"/>
      <point x="1048" y="705" type="line" smooth="yes"/>
      <point x="1048" y="462"/>
      <point x="966" y="354"/>
      <point x="663" y="323" type="curve"/>
      <point x="466" y="303" type="line"/>
      <point x="323" y="292" type="line"/>
      <point x="192" y="280"/>
      <point x="144" y="227"/>
      <point x="144" y="134" type="curve" smooth="yes"/>
      <point x="144" y="84"/>
      <point x="160" y="32"/>
      <point x="175" y="0" type="curve"/>
      <point x="1520" y="0" type="line"/>
      <point x="1529" y="33" type="line"/>
      <point x="199" y="33" type="line"/>
      <point x="187" y="63"/>
      <point x="180" y="97"/>
      <point x="180" y="134" type="curve" smooth="yes"/>
      <point x="180" y="214"/>
      <point x="219" y="253"/>
      <point x="330" y="262" type="curve" smooth="yes"/>
      <point x="671" y="291" type="line" smooth="yes"/>
      <point x="991" y="318"/>
      <point x="1084" y="445"/>
      <point x="1084" y="704" type="curve" smooth="yes"/>
      <point x="1084" y="752" type="line" smooth="yes"/>
      <point x="1084" y="1022"/>
      <point x="955" y="1166"/>
    </contour>
  </outline>
</glyph>
<glyph name="VowelUu_Fused.tm" format="2">
  <advance width="3040"/>
  <note>
vowelUu.tm
</note>
  <outline>
    <contour>
      <point x="890" y="0" type="line"/>
      <point x="3005" y="0" type="line"/>
      <point x="3014" y="32" type="line"/>
      <point x="890" y="32" type="line"/>
    </contour>
    <contour>
      <point x="2718" y="1117" type="line"/>
      <point x="2718" y="206" type="line"/>
      <point x="2754" y="206" type="line"/>
      <point x="2754" y="1117" type="line"/>
    </contour>
    <contour>
      <point x="1812" y="1150" type="curve" smooth="yes"/>
      <point x="1522" y="1150"/>
      <point x="1371" y="986"/>
      <point x="1371" y="676" type="curve" smooth="yes"/>
      <point x="1371" y="509" type="line" smooth="yes"/>
      <point x="1371" y="306"/>
      <point x="1460" y="189"/>
      <point x="1650" y="189" type="curve" smooth="yes"/>
      <point x="1825" y="189"/>
      <point x="1909" y="295"/>
      <point x="1909" y="471" type="curve" smooth="yes"/>
      <point x="1909" y="547" type="line" smooth="yes"/>
      <point x="1909" y="720"/>
      <point x="1826" y="813"/>
      <point x="1664" y="813" type="curve" smooth="yes"/>
      <point x="1534" y="813"/>
      <point x="1440" y="739"/>
      <point x="1404" y="648" type="curve"/>
      <point x="1396" y="648" type="line"/>
      <point x="1396" y="566" type="line"/>
      <point x="1423" y="688"/>
      <point x="1524" y="779"/>
      <point x="1661" y="779" type="curve" smooth="yes"/>
      <point x="1804" y="779"/>
      <point x="1873" y="698"/>
      <point x="1873" y="546" type="curve" smooth="yes"/>
      <point x="1873" y="471" type="line" smooth="yes"/>
      <point x="1873" y="313"/>
      <point x="1801" y="222"/>
      <point x="1650" y="222" type="curve" smooth="yes"/>
      <point x="1483" y="222"/>
      <point x="1405" y="325"/>
      <point x="1405" y="499" type="curve"/>
      <point x="1405" y="648" type="line"/>
      <point x="1404" y="648" type="line"/>
      <point x="1404" y="658"/>
      <point x="1404" y="664"/>
      <point x="1404" y="675" type="curve" smooth="yes"/>
      <point x="1404" y="962"/>
      <point x="1540" y="1117"/>
      <point x="1812" y="1117" type="curve" smooth="yes"/>
      <point x="2098" y="1117"/>
      <point x="2201" y="951"/>
      <point x="2201" y="647" type="curve" smooth="yes"/>
      <point x="2201" y="206" type="line"/>
      <point x="2237" y="206" type="line"/>
      <point x="2237" y="1098" type="line"/>
      <point x="3014" y="1098" type="line"/>
      <point x="3007" y="1131" type="line"/>
      <point x="2202" y="1131" type="line"/>
      <point x="2207" y="839" type="line"/>
      <point x="2205" y="839" type="line"/>
      <point x="2178" y="1008"/>
      <point x="2077" y="1150"/>
    </contour>
    <component base="VowelU_Fused.tm"/>
  </outline>
</glyph>
<glyph name="YaMatraI_SimpleI.tm" format="2">
  <advance width="2376"/>
  <note>
YaMatraI.tm
</note>
  <outline>
    <contour>
      <point x="1390" y="0" type="line"/>
      <point x="1390" y="34" type="line"/>
      <point x="775" y="34" type="line"/>
      <point x="775" y="1131" type="line"/>
      <point x="739" y="1131" type="line"/>
      <point x="739" y="395" type="line" smooth="yes"/>
      <point x="739" y="137"/>
      <point x="656" y="15"/>
      <point x="470" y="15" type="curve" smooth="yes"/>
      <point x="317" y="15"/>
      <point x="236" y="111"/>
      <point x="236" y="320" type="curve" smooth="yes"/>
      <point x="236" y="1131" type="line"/>
      <point x="200" y="1131" type="line"/>
      <point x="200" y="318" type="line" smooth="yes"/>
      <point x="200" y="91"/>
      <point x="296" y="-19"/>
      <point x="470" y="-19" type="curve" smooth="yes"/>
      <point x="644" y="-19"/>
      <point x="727" y="85"/>
      <point x="745" y="244" type="curve"/>
      <point x="747" y="244" type="line"/>
      <point x="743" y="0" type="line"/>
    </contour>
    <contour>
      <point x="1657" y="1131" type="line"/>
      <point x="1657" y="34" type="line"/>
      <point x="1234" y="34" type="line"/>
      <point x="1234" y="0" type="line"/>
      <point x="1693" y="0" type="line"/>
      <point x="1693" y="1131" type="line"/>
    </contour>
    <contour>
      <point x="1785" y="1698" type="curve" smooth="yes"/>
      <point x="1540" y="1698"/>
      <point x="1405" y="1576"/>
      <point x="1405" y="1378" type="curve" smooth="yes"/>
      <point x="1405" y="1376" type="line" smooth="yes"/>
      <point x="1405" y="1185"/>
      <point x="1519" y="1099"/>
      <point x="1673" y="1098" type="curve"/>
      <point x="1681" y="1131" type="line"/>
      <point x="1541" y="1131"/>
      <point x="1442" y="1205"/>
      <point x="1442" y="1376" type="curve" smooth="yes"/>
      <point x="1442" y="1378" type="line" smooth="yes"/>
      <point x="1442" y="1556"/>
      <point x="1559" y="1664"/>
      <point x="1785" y="1664" type="curve" smooth="yes"/>
      <point x="2034" y="1664"/>
      <point x="2135" y="1542"/>
      <point x="2135" y="1277" type="curve" smooth="yes"/>
      <point x="2135" y="0" type="line"/>
      <point x="2171" y="0" type="line"/>
      <point x="2171" y="1280" type="line" smooth="yes"/>
      <point x="2171" y="1565"/>
      <point x="2052" y="1698"/>
    </contour>
  </outline>
</glyph>
<glyph name="YaMatraIi_SimpleIi.tm" format="2">
  <advance width="1898"/>
  <note>
YaMatraIi.tm
</note>
  <outline>
    <contour>
      <point x="1693" y="1131" type="line"/>
      <point x="1657" y="1131" type="line"/>
      <point x="1657" y="34" type="line"/>
      <point x="1313" y="34" type="line"/>
      <point x="1313" y="0" type="line"/>
      <point x="1693" y="0" type="line"/>
    </contour>
    <contour>
      <point x="1644" y="1786" type="curve" smooth="yes"/>
      <point x="1476" y="1786"/>
      <point x="1375" y="1688"/>
      <point x="1375" y="1490" type="curve" smooth="yes"/>
      <point x="1375" y="1434" type="line" smooth="yes"/>
      <point x="1375" y="1188"/>
      <point x="1492" y="1099"/>
      <point x="1662" y="1099" type="curve"/>
      <point x="1671" y="1099" type="line"/>
      <point x="1671" y="1131" type="line"/>
      <point x="1666" y="1131" type="line"/>
      <point x="1512" y="1131"/>
      <point x="1410" y="1206"/>
      <point x="1410" y="1426" type="curve" smooth="yes"/>
      <point x="1410" y="1451" type="line"/>
      <point x="1411" y="1494" type="line" smooth="yes"/>
      <point x="1411" y="1669"/>
      <point x="1498" y="1753"/>
      <point x="1644" y="1753" type="curve" smooth="yes"/>
      <point x="1781" y="1753"/>
      <point x="1855" y="1686"/>
      <point x="1855" y="1558" type="curve" smooth="yes"/>
      <point x="1855" y="1543" type="line" smooth="yes"/>
      <point x="1855" y="1416"/>
      <point x="1790" y="1350"/>
      <point x="1649" y="1350" type="curve" smooth="yes"/>
      <point x="1525" y="1350"/>
      <point x="1439" y="1402"/>
      <point x="1407" y="1471" type="curve"/>
      <point x="1404" y="1471" type="line"/>
      <point x="1404" y="1439" type="line"/>
      <point x="1410" y="1439" type="line"/>
      <point x="1438" y="1395" type="line"/>
      <point x="1467" y="1359"/>
      <point x="1544" y="1317"/>
      <point x="1653" y="1317" type="curve" smooth="yes"/>
      <point x="1821" y="1317"/>
      <point x="1891" y="1404"/>
      <point x="1891" y="1542" type="curve" smooth="yes"/>
      <point x="1891" y="1559" type="line" smooth="yes"/>
      <point x="1891" y="1705"/>
      <point x="1803" y="1786"/>
    </contour>
    <contour>
      <point x="1488" y="0" type="line"/>
      <point x="1488" y="34" type="line"/>
      <point x="775" y="34" type="line"/>
      <point x="775" y="1131" type="line"/>
      <point x="739" y="1131" type="line"/>
      <point x="739" y="395" type="line" smooth="yes"/>
      <point x="739" y="137"/>
      <point x="656" y="15"/>
      <point x="470" y="15" type="curve" smooth="yes"/>
      <point x="317" y="15"/>
      <point x="236" y="111"/>
      <point x="236" y="320" type="curve" smooth="yes"/>
      <point x="236" y="1131" type="line"/>
      <point x="200" y="1131" type="line"/>
      <point x="200" y="318" type="line" smooth="yes"/>
      <point x="200" y="91"/>
      <point x="296" y="-19"/>
      <point x="470" y="-19" type="curve" smooth="yes"/>
      <point x="644" y="-19"/>
      <point x="727" y="85"/>
      <point x="745" y="244" type="curve"/>
      <point x="747" y="244" type="line"/>
      <point x="743" y="0" type="line"/>
    </contour>
  </outline>
</glyph>
<glyph name="YaMatraU.tm" format="2">
  <advance width="1898"/>
  <note>
YaMatraU.tm
</note>
  <anchor x="757" y="1245" name="top"/>
  <outline>
    <contour>
      <point x="1657" y="174" type="line"/>
      <point x="1657" y="-353" type="line"/>
      <point x="1693" y="-353" type="line"/>
      <point x="1693" y="174" type="line"/>
    </contour>
    <component base="Ya.tm"/>
  </outline>
</glyph>
<glyph name="YaMatraUu.tm" format="2">
  <advance width="2203"/>
  <note>
YaMatraUu.tm
</note>
  <anchor x="752" y="1245" name="top"/>
  <outline>
    <contour>
      <point x="1652" y="185" type="line"/>
      <point x="1652" y="-313" type="line"/>
      <point x="1688" y="-313" type="line"/>
      <point x="1688" y="185" type="line"/>
    </contour>
    <contour>
      <point x="1925" y="243" type="curve" smooth="yes"/>
      <point x="1798" y="243"/>
      <point x="1717" y="161"/>
      <point x="1688" y="68" type="curve"/>
      <point x="1676" y="68" type="line"/>
      <point x="1676" y="-24" type="line"/>
      <point x="1682" y="-24" type="line"/>
      <point x="1712" y="122"/>
      <point x="1796" y="209"/>
      <point x="1924" y="209" type="curve" smooth="yes"/>
      <point x="2079" y="209"/>
      <point x="2133" y="115"/>
      <point x="2133" y="-55" type="curve" smooth="yes"/>
      <point x="2133" y="-74" type="line" smooth="yes"/>
      <point x="2133" y="-473"/>
      <point x="1839" y="-690"/>
      <point x="1142" y="-690" type="curve" smooth="yes"/>
      <point x="529" y="-690"/>
      <point x="158" y="-547"/>
      <point x="158" y="-334" type="curve" smooth="yes"/>
      <point x="158" y="-219"/>
      <point x="264" y="-180"/>
      <point x="416" y="-180" type="curve" smooth="yes"/>
      <point x="614" y="-180"/>
      <point x="781" y="-232"/>
      <point x="901" y="-290" type="curve"/>
      <point x="895" y="-250" type="line"/>
      <point x="787" y="-199"/>
      <point x="622" y="-147"/>
      <point x="412" y="-147" type="curve" smooth="yes"/>
      <point x="238" y="-147"/>
      <point x="122" y="-201"/>
      <point x="122" y="-334" type="curve" smooth="yes"/>
      <point x="122" y="-569"/>
      <point x="497" y="-724"/>
      <point x="1142" y="-724" type="curve" smooth="yes"/>
      <point x="1860" y="-724"/>
      <point x="2170" y="-498"/>
      <point x="2170" y="-74" type="curve" smooth="yes"/>
      <point x="2170" y="-52" type="line" smooth="yes"/>
      <point x="2170" y="137"/>
      <point x="2099" y="243"/>
    </contour>
    <component base="Ya.tm" xOffset="-5"/>
  </outline>
</glyph>
<glyph name="acutecomb.narrow" format="2">
  <anchor x="121" y="971" name="_top"/>
  <anchor x="126" y="1295" name="top"/>
  <outline>
    <contour>
      <point x="238" y="1360" type="line"/>
      <point x="109" y="1111" type="line"/>
      <point x="109" y="1111" type="line"/>
      <point x="142" y="1111" type="line"/>
      <point x="280" y="1360" type="line"/>
      <point x="280" y="1360" type="line"/>
    </contour>
  </outline>
</glyph>
<glyph name="seven.tf" format="2">
  <advance width="1016"/>
  <outline>
    <contour>
      <point x="172" y="1278" type="line"/>
      <point x="172" y="935" type="line"/>
      <point x="209" y="935" type="line"/>
      <point x="209" y="1278" type="line"/>
    </contour>
    <component base="seven" xOffset="133"/>
  </outline>
</glyph>
